ply
format ascii 1.0
comment File exported by Rhinoceros Version 8
element vertex 240
property float x
property float y
property float z
property float nx
property float ny
property float nz
property uchar red
property uchar green
property uchar blue
element face 60
property list uchar uint vertex_indices
element material 1
property uchar ambient_red
property uchar ambient_green
property uchar ambient_blue
property uchar ambient_alpha
property uchar diffuse_red
property uchar diffuse_green
property uchar diffuse_blue
property uchar diffuse_alpha
property uchar emissive_red
property uchar emissive_green
property uchar emissive_blue
property uchar emissive_alpha
property uchar specular_red
property uchar specular_green
property uchar specular_blue
property uchar specular_alpha
property double shine
property double transparency
end_header
0 0 0 -0 1 -0 250 250 250
0 0 0.019999999552965164 -0 1 -0 250 250 250
0.05999999865889549 0 0 -0 1 -0 250 250 250
0.05999999865889549 0 0.019999999552965164 -0 1 -0 250 250 250
0.05999999865889549 0 0 -0 1 -0 250 250 250
0.05999999865889549 0 0.019999999552965164 -0 1 -0 250 250 250
0.11999999731779099 0 0 -0 1 -0 250 250 250
0.11999999731779099 0 0.019999999552965164 -0 1 -0 250 250 250
0.11999999731779099 0 0 -0 1 -0 250 250 250
0.11999999731779099 0 0.019999999552965164 -0 1 -0 250 250 250
0.18000000715255737 0 0 -0 1 -0 250 250 250
0.18000000715255737 0 0.019999999552965164 -0 1 -0 250 250 250
0.18000000715255737 0 0 -0 1 -0 250 250 250
0.18000000715255737 0 0.019999999552965164 -0 1 -0 250 250 250
0.23999999463558197 0 0 -0 1 -0 250 250 250
0.23999999463558197 0 0.019999999552965164 -0 1 -0 250 250 250
0.23999999463558197 0 0 -0 1 -0 250 250 250
0.23999999463558197 0 0.019999999552965164 -0 1 -0 250 250 250
0.30000001192092896 0 0 -0 1 -0 250 250 250
0.30000001192092896 0 0.019999999552965164 -0 1 -0 250 250 250
0.30000001192092896 0 0 -0 1 -0 250 250 250
0.30000001192092896 0 0.019999999552965164 -0 1 -0 250 250 250
0.36000001430511475 0 0 -0 1 -0 250 250 250
0.36000001430511475 0 0.019999999552965164 -0 1 -0 250 250 250
0.36000001430511475 0 0 -0 1 -0 250 250 250
0.36000001430511475 0 0.019999999552965164 -0 1 -0 250 250 250
0.41999998688697815 0 0 -0 1 -0 250 250 250
0.41999998688697815 0 0.019999999552965164 -0 1 -0 250 250 250
0.029999999329447746 0 0.019999999552965164 -0 1 -0 250 250 250
0.029999999329447746 0 0.03999999910593033 -0 1 -0 250 250 250
0.09000000357627869 0 0.019999999552965164 -0 1 -0 250 250 250
0.09000000357627869 0 0.03999999910593033 -0 1 -0 250 250 250
0.09000000357627869 0 0.019999999552965164 -0 1 -0 250 250 250
0.09000000357627869 0 0.03999999910593033 -0 1 -0 250 250 250
0.15000000596046448 0 0.019999999552965164 -0 1 -0 250 250 250
0.15000000596046448 0 0.03999999910593033 -0 1 -0 250 250 250
0.15000000596046448 0 0.019999999552965164 -0 1 -0 250 250 250
0.15000000596046448 0 0.03999999910593033 -0 1 -0 250 250 250
0.20999999344348907 0 0.019999999552965164 -0 1 -0 250 250 250
0.20999999344348907 0 0.03999999910593033 -0 1 -0 250 250 250
0.20999999344348907 0 0.019999999552965164 -0 1 -0 250 250 250
0.20999999344348907 0 0.03999999910593033 -0 1 -0 250 250 250
0.27000001072883606 0 0.019999999552965164 -0 1 -0 250 250 250
0.27000001072883606 0 0.03999999910593033 -0 1 -0 250 250 250
0.27000001072883606 0 0.019999999552965164 -0 1 -0 250 250 250
0.27000001072883606 0 0.03999999910593033 -0 1 -0 250 250 250
0.33000001311302185 0 0.019999999552965164 -0 1 -0 250 250 250
0.33000001311302185 0 0.03999999910593033 -0 1 -0 250 250 250
0.33000001311302185 0 0.019999999552965164 -0 1 -0 250 250 250
0.33000001311302185 0 0.03999999910593033 -0 1 -0 250 250 250
0.38999998569488525 0 0.019999999552965164 -0 1 -0 250 250 250
0.38999998569488525 0 0.03999999910593033 -0 1 -0 250 250 250
0.38999998569488525 0 0.019999999552965164 -0 1 -0 250 250 250
0.38999998569488525 0 0.03999999910593033 -0 1 -0 250 250 250
0.41999998688697815 0 0.019999999552965164 -0 1 -0 250 250 250
0.41999998688697815 0 0.03999999910593033 -0 1 -0 250 250 250
0 0 0.019999999552965164 -0 1 -0 250 250 250
0 0 0.03999999910593033 -0 1 -0 250 250 250
0.029999999329447746 0 0.019999999552965164 -0 1 -0 250 250 250
0.029999999329447746 0 0.03999999910593033 -0 1 -0 250 250 250
-5.551115123125783E-17 0 0.03999999910593033 -0 1 -0 250 250 250
-5.551115123125783E-17 0 0.05999999865889549 -0 1 -0 250 250 250
0.05999999865889549 0 0.03999999910593033 -0 1 -0 250 250 250
0.05999999865889549 0 0.05999999865889549 -0 1 -0 250 250 250
0.05999999865889549 0 0.03999999910593033 -0 1 -0 250 250 250
0.05999999865889549 0 0.05999999865889549 -0 1 -0 250 250 250
0.11999999731779099 0 0.03999999910593033 -0 1 -0 250 250 250
0.11999999731779099 0 0.05999999865889549 -0 1 -0 250 250 250
0.11999999731779099 0 0.03999999910593033 -0 1 -0 250 250 250
0.11999999731779099 0 0.05999999865889549 -0 1 -0 250 250 250
0.18000000715255737 0 0.03999999910593033 -0 1 -0 250 250 250
0.18000000715255737 0 0.05999999865889549 -0 1 -0 250 250 250
0.18000000715255737 0 0.03999999910593033 -0 1 -0 250 250 250
0.18000000715255737 0 0.05999999865889549 -0 1 -0 250 250 250
0.23999999463558197 0 0.03999999910593033 -0 1 -0 250 250 250
0.23999999463558197 0 0.05999999865889549 -0 1 -0 250 250 250
0.23999999463558197 0 0.03999999910593033 -0 1 -0 250 250 250
0.23999999463558197 0 0.05999999865889549 -0 1 -0 250 250 250
0.30000001192092896 0 0.03999999910593033 -0 1 -0 250 250 250
0.30000001192092896 0 0.05999999865889549 -0 1 -0 250 250 250
0.30000001192092896 0 0.03999999910593033 -0 1 -0 250 250 250
0.30000001192092896 0 0.05999999865889549 -0 1 -0 250 250 250
0.36000001430511475 0 0.03999999910593033 -0 1 -0 250 250 250
0.36000001430511475 0 0.05999999865889549 -0 1 -0 250 250 250
0.36000001430511475 0 0.03999999910593033 -0 1 -0 250 250 250
0.36000001430511475 0 0.05999999865889549 -0 1 -0 250 250 250
0.41999998688697815 0 0.03999999910593033 -0 1 -0 250 250 250
0.41999998688697815 0 0.05999999865889549 -0 1 -0 250 250 250
0.029999999329447746 0 0.05999999865889549 -0 1 -0 250 250 250
0.029999999329447746 0 0.07999999821186066 -0 1 -0 250 250 250
0.09000000357627869 0 0.05999999865889549 -0 1 -0 250 250 250
0.09000000357627869 0 0.07999999821186066 -0 1 -0 250 250 250
0.09000000357627869 0 0.05999999865889549 -0 1 -0 250 250 250
0.09000000357627869 0 0.07999999821186066 -0 1 -0 250 250 250
0.15000000596046448 0 0.05999999865889549 -0 1 -0 250 250 250
0.15000000596046448 0 0.07999999821186066 -0 1 -0 250 250 250
0.15000000596046448 0 0.05999999865889549 -0 1 -0 250 250 250
0.15000000596046448 0 0.07999999821186066 -0 1 -0 250 250 250
0.20999999344348907 0 0.05999999865889549 -0 1 -0 250 250 250
0.20999999344348907 0 0.07999999821186066 -0 1 -0 250 250 250
0.20999999344348907 0 0.05999999865889549 -0 1 -0 250 250 250
0.20999999344348907 0 0.07999999821186066 -0 1 -0 250 250 250
0.27000001072883606 0 0.05999999865889549 -0 1 -0 250 250 250
0.27000001072883606 0 0.07999999821186066 -0 1 -0 250 250 250
0.27000001072883606 0 0.05999999865889549 -0 1 -0 250 250 250
0.27000001072883606 0 0.07999999821186066 -0 1 -0 250 250 250
0.33000001311302185 0 0.05999999865889549 -0 1 -0 250 250 250
0.33000001311302185 0 0.07999999821186066 -0 1 -0 250 250 250
0.33000001311302185 0 0.05999999865889549 -0 1 -0 250 250 250
0.33000001311302185 0 0.07999999821186066 -0 1 -0 250 250 250
0.38999998569488525 0 0.05999999865889549 -0 1 -0 250 250 250
0.38999998569488525 0 0.07999999821186066 -0 1 -0 250 250 250
0.38999998569488525 0 0.05999999865889549 -0 1 -0 250 250 250
0.38999998569488525 0 0.07999999821186066 -0 1 -0 250 250 250
0.41999998688697815 0 0.05999999865889549 -0 1 -0 250 250 250
0.41999998688697815 0 0.07999999821186066 -0 1 -0 250 250 250
-5.551115123125783E-17 0 0.05999999865889549 -0 1 -0 250 250 250
-5.551115123125783E-17 0 0.07999999821186066 -0 1 -0 250 250 250
0.029999999329447746 0 0.05999999865889549 -0 1 -0 250 250 250
0.029999999329447746 0 0.07999999821186066 -0 1 -0 250 250 250
-1.1102230246251565E-16 0 0.07999999821186066 -0 1 -0 250 250 250
-1.1102230246251565E-16 0 0.10000000149011612 -0 1 -0 250 250 250
0.05999999865889549 0 0.07999999821186066 -0 1 -0 250 250 250
0.05999999865889549 0 0.10000000149011612 -0 1 -0 250 250 250
0.05999999865889549 0 0.07999999821186066 -0 1 -0 250 250 250
0.05999999865889549 0 0.10000000149011612 -0 1 -0 250 250 250
0.11999999731779099 0 0.07999999821186066 -0 1 -0 250 250 250
0.11999999731779099 0 0.10000000149011612 -0 1 -0 250 250 250
0.11999999731779099 0 0.07999999821186066 -0 1 -0 250 250 250
0.11999999731779099 0 0.10000000149011612 -0 1 -0 250 250 250
0.18000000715255737 0 0.07999999821186066 -0 1 -0 250 250 250
0.18000000715255737 0 0.10000000149011612 -0 1 -0 250 250 250
0.18000000715255737 0 0.07999999821186066 -0 1 -0 250 250 250
0.18000000715255737 0 0.10000000149011612 -0 1 -0 250 250 250
0.23999999463558197 0 0.07999999821186066 -0 1 -0 250 250 250
0.23999999463558197 0 0.10000000149011612 -0 1 -0 250 250 250
0.23999999463558197 0 0.07999999821186066 -0 1 -0 250 250 250
0.23999999463558197 0 0.10000000149011612 -0 1 -0 250 250 250
0.30000001192092896 0 0.07999999821186066 -0 1 -0 250 250 250
0.30000001192092896 0 0.10000000149011612 -0 1 -0 250 250 250
0.30000001192092896 0 0.07999999821186066 -0 1 -0 250 250 250
0.30000001192092896 0 0.10000000149011612 -0 1 -0 250 250 250
0.36000001430511475 0 0.07999999821186066 -0 1 -0 250 250 250
0.36000001430511475 0 0.10000000149011612 -0 1 -0 250 250 250
0.36000001430511475 0 0.07999999821186066 -0 1 -0 250 250 250
0.36000001430511475 0 0.10000000149011612 -0 1 -0 250 250 250
0.41999998688697815 0 0.07999999821186066 -0 1 -0 250 250 250
0.41999998688697815 0 0.10000000149011612 -0 1 -0 250 250 250
0.029999999329447746 0 0.10000000149011612 -0 1 -0 250 250 250
0.029999999329447746 0 0.11999999731779099 -0 1 -0 250 250 250
0.09000000357627869 0 0.10000000149011612 -0 1 -0 250 250 250
0.09000000357627869 0 0.11999999731779099 -0 1 -0 250 250 250
0.09000000357627869 0 0.10000000149011612 -0 1 -0 250 250 250
0.09000000357627869 0 0.11999999731779099 -0 1 -0 250 250 250
0.15000000596046448 0 0.10000000149011612 -0 1 -0 250 250 250
0.15000000596046448 0 0.11999999731779099 -0 1 -0 250 250 250
0.15000000596046448 0 0.10000000149011612 -0 1 -0 250 250 250
0.15000000596046448 0 0.11999999731779099 -0 1 -0 250 250 250
0.20999999344348907 0 0.10000000149011612 -0 1 -0 250 250 250
0.20999999344348907 0 0.11999999731779099 -0 1 -0 250 250 250
0.20999999344348907 0 0.10000000149011612 -0 1 -0 250 250 250
0.20999999344348907 0 0.11999999731779099 -0 1 -0 250 250 250
0.27000001072883606 0 0.10000000149011612 -0 1 -0 250 250 250
0.27000001072883606 0 0.11999999731779099 -0 1 -0 250 250 250
0.27000001072883606 0 0.10000000149011612 -0 1 -0 250 250 250
0.27000001072883606 0 0.11999999731779099 -0 1 -0 250 250 250
0.33000001311302185 0 0.10000000149011612 -0 1 -0 250 250 250
0.33000001311302185 0 0.11999999731779099 -0 1 -0 250 250 250
0.33000001311302185 0 0.10000000149011612 -0 1 -0 250 250 250
0.33000001311302185 0 0.11999999731779099 -0 1 -0 250 250 250
0.38999998569488525 0 0.10000000149011612 -0 1 -0 250 250 250
0.38999998569488525 0 0.11999999731779099 -0 1 -0 250 250 250
0.38999998569488525 0 0.10000000149011612 -0 1 -0 250 250 250
0.38999998569488525 0 0.11999999731779099 -0 1 -0 250 250 250
0.41999998688697815 0 0.10000000149011612 -0 1 -0 250 250 250
0.41999998688697815 0 0.11999999731779099 -0 1 -0 250 250 250
-1.1102230246251565E-16 0 0.10000000149011612 -0 1 -0 250 250 250
-1.1102230246251565E-16 0 0.11999999731779099 -0 1 -0 250 250 250
0.029999999329447746 0 0.10000000149011612 -0 1 -0 250 250 250
0.029999999329447746 0 0.11999999731779099 -0 1 -0 250 250 250
-1.6653345369377348E-16 0 0.11999999731779099 -0 1 -0 250 250 250
-1.6653345369377348E-16 0 0.14000000059604645 -0 1 -0 250 250 250
0.05999999865889549 0 0.11999999731779099 -0 1 -0 250 250 250
0.05999999865889549 0 0.14000000059604645 -0 1 -0 250 250 250
0.05999999865889549 0 0.11999999731779099 -0 1 -0 250 250 250
0.05999999865889549 0 0.14000000059604645 -0 1 -0 250 250 250
0.11999999731779099 0 0.11999999731779099 -0 1 -0 250 250 250
0.11999999731779099 0 0.14000000059604645 -0 1 -0 250 250 250
0.11999999731779099 0 0.11999999731779099 -0 1 -0 250 250 250
0.11999999731779099 0 0.14000000059604645 -0 1 -0 250 250 250
0.18000000715255737 0 0.11999999731779099 -0 1 -0 250 250 250
0.18000000715255737 0 0.14000000059604645 -0 1 -0 250 250 250
0.18000000715255737 0 0.11999999731779099 -0 1 -0 250 250 250
0.18000000715255737 0 0.14000000059604645 -0 1 -0 250 250 250
0.23999999463558197 0 0.11999999731779099 -0 1 -0 250 250 250
0.23999999463558197 0 0.14000000059604645 -0 1 -0 250 250 250
0.23999999463558197 0 0.11999999731779099 -0 1 -0 250 250 250
0.23999999463558197 0 0.14000000059604645 -0 1 -0 250 250 250
0.30000001192092896 0 0.11999999731779099 -0 1 -0 250 250 250
0.30000001192092896 0 0.14000000059604645 -0 1 -0 250 250 250
0.30000001192092896 0 0.11999999731779099 -0 1 -0 250 250 250
0.30000001192092896 0 0.14000000059604645 -0 1 -0 250 250 250
0.36000001430511475 0 0.11999999731779099 -0 1 -0 250 250 250
0.36000001430511475 0 0.14000000059604645 -0 1 -0 250 250 250
0.36000001430511475 0 0.11999999731779099 -0 1 -0 250 250 250
0.36000001430511475 0 0.14000000059604645 -0 1 -0 250 250 250
0.41999998688697815 0 0.11999999731779099 -0 1 -0 250 250 250
0.41999998688697815 0 0.14000000059604645 -0 1 -0 250 250 250
0.029999999329447746 0 0.14000000059604645 -0 1 -0 250 250 250
0.029999999329447746 0 0.1599999964237213 -0 1 -0 250 250 250
0.09000000357627869 0 0.14000000059604645 -0 1 -0 250 250 250
0.09000000357627869 0 0.1599999964237213 -0 1 -0 250 250 250
0.09000000357627869 0 0.14000000059604645 -0 1 -0 250 250 250
0.09000000357627869 0 0.1599999964237213 -0 1 -0 250 250 250
0.15000000596046448 0 0.14000000059604645 -0 1 -0 250 250 250
0.15000000596046448 0 0.1599999964237213 -0 1 -0 250 250 250
0.15000000596046448 0 0.14000000059604645 -0 1 -0 250 250 250
0.15000000596046448 0 0.1599999964237213 -0 1 -0 250 250 250
0.20999999344348907 0 0.14000000059604645 -0 1 -0 250 250 250
0.20999999344348907 0 0.1599999964237213 -0 1 -0 250 250 250
0.20999999344348907 0 0.14000000059604645 -0 1 -0 250 250 250
0.20999999344348907 0 0.1599999964237213 -0 1 -0 250 250 250
0.27000001072883606 0 0.14000000059604645 -0 1 -0 250 250 250
0.27000001072883606 0 0.1599999964237213 -0 1 -0 250 250 250
0.27000001072883606 0 0.14000000059604645 -0 1 -0 250 250 250
0.27000001072883606 0 0.1599999964237213 -0 1 -0 250 250 250
0.33000001311302185 0 0.14000000059604645 -0 1 -0 250 250 250
0.33000001311302185 0 0.1599999964237213 -0 1 -0 250 250 250
0.33000001311302185 0 0.14000000059604645 -0 1 -0 250 250 250
0.33000001311302185 0 0.1599999964237213 -0 1 -0 250 250 250
0.38999998569488525 0 0.14000000059604645 -0 1 -0 250 250 250
0.38999998569488525 0 0.1599999964237213 -0 1 -0 250 250 250
0.38999998569488525 0 0.14000000059604645 -0 1 -0 250 250 250
0.38999998569488525 0 0.1599999964237213 -0 1 -0 250 250 250
0.41999998688697815 0 0.14000000059604645 -0 1 -0 250 250 250
0.41999998688697815 0 0.1599999964237213 -0 1 -0 250 250 250
-1.6653345369377348E-16 0 0.14000000059604645 -0 1 -0 250 250 250
-1.6653345369377348E-16 0 0.1599999964237213 -0 1 -0 250 250 250
0.029999999329447746 0 0.14000000059604645 -0 1 -0 250 250 250
0.029999999329447746 0 0.1599999964237213 -0 1 -0 250 250 250
4 3 2 0 1
4 7 6 4 5
4 11 10 8 9
4 15 14 12 13
4 19 18 16 17
4 23 22 20 21
4 27 26 24 25
4 31 30 28 29
4 35 34 32 33
4 39 38 36 37
4 43 42 40 41
4 47 46 44 45
4 51 50 48 49
4 55 54 52 53
4 59 58 56 57
4 63 62 60 61
4 67 66 64 65
4 71 70 68 69
4 75 74 72 73
4 79 78 76 77
4 83 82 80 81
4 87 86 84 85
4 91 90 88 89
4 95 94 92 93
4 99 98 96 97
4 103 102 100 101
4 107 106 104 105
4 111 110 108 109
4 115 114 112 113
4 119 118 116 117
4 123 122 120 121
4 127 126 124 125
4 131 130 128 129
4 135 134 132 133
4 139 138 136 137
4 143 142 140 141
4 147 146 144 145
4 151 150 148 149
4 155 154 152 153
4 159 158 156 157
4 163 162 160 161
4 167 166 164 165
4 171 170 168 169
4 175 174 172 173
4 179 178 176 177
4 183 182 180 181
4 187 186 184 185
4 191 190 188 189
4 195 194 192 193
4 199 198 196 197
4 203 202 200 201
4 207 206 204 205
4 211 210 208 209
4 215 214 212 213
4 219 218 216 217
4 223 222 220 221
4 227 226 224 225
4 231 230 228 229
4 235 234 232 233
4 239 238 236 237
0 0 0 255 250 250 250 255 0 0 0 255 255 255 255 255 0 0
