ply
format ascii 1.0
comment File exported by Rhinoceros Version 8
element vertex 112
property float x
property float y
property float z
property float nx
property float ny
property float nz
property uchar red
property uchar green
property uchar blue
element face 28
property list uchar uint vertex_indices
element material 1
property uchar ambient_red
property uchar ambient_green
property uchar ambient_blue
property uchar ambient_alpha
property uchar diffuse_red
property uchar diffuse_green
property uchar diffuse_blue
property uchar diffuse_alpha
property uchar emissive_red
property uchar emissive_green
property uchar emissive_blue
property uchar emissive_alpha
property uchar specular_red
property uchar specular_green
property uchar specular_blue
property uchar specular_alpha
property double shine
property double transparency
end_header
0 0 0 -1 -0 -0 250 250 250
0 0 0.019999999552965164 -1 -0 -0 250 250 250
0 0.029999999329447746 0 -1 -0 -0 250 250 250
0 0.029999999329447746 0.019999999552965164 -1 -0 -0 250 250 250
0 0.029999999329447746 0 -1 0 -0 250 250 250
0 0.029999999329447746 0.019999999552965164 -1 0 -0 250 250 250
0 0.09000000357627869 -3.469446951953614E-18 -1 0 -0 250 250 250
0 0.09000000357627869 0.019999999552965164 -1 0 -0 250 250 250
0 0.09000000357627869 -3.469446951953614E-18 -1 0 -0 250 250 250
0 0.09000000357627869 0.019999999552965164 -1 0 -0 250 250 250
0 0.15000000596046448 -6.938893903907228E-18 -1 0 -0 250 250 250
0 0.15000000596046448 0.019999999552965164 -1 0 -0 250 250 250
0 0 0.019999999552965164 -1 0 -0 250 250 250
0 0 0.03999999910593033 -1 0 -0 250 250 250
0 0.05999999865889549 0.019999999552965164 -1 0 -0 250 250 250
0 0.05999999865889549 0.03999999910593033 -1 0 -0 250 250 250
0 0.11999999731779099 0.019999999552965164 -1 0 -0 250 250 250
0 0.11999999731779099 0.03999999910593033 -1 0 -0 250 250 250
0 0.18000000715255737 0.019999999552965164 -1 0 -0 250 250 250
0 0.18000000715255737 0.03999999910593033 -1 0 -0 250 250 250
0 0.05999999865889549 0.019999999552965164 -1 0 -0 250 250 250
0 0.05999999865889549 0.03999999910593033 -1 -0 -0 250 250 250
0 0.11999999731779099 0.019999999552965164 -1 0 -0 250 250 250
0 0.11999999731779099 0.03999999910593033 -1 -0 -0 250 250 250
0 0.15000000596046448 1.734723475976807E-18 -1 -0 -0 250 250 250
0 0.15000000596046448 0.019999999552965164 -1 -0 -0 250 250 250
0 0.18000000715255737 1.734723475976807E-18 -1 -0 -0 250 250 250
0 0.18000000715255737 0.019999999552965164 -1 -0 -0 250 250 250
0 0 0.03999999910593033 -1 -0 -0 250 250 250
0 0 0.05999999865889549 -1 -0 -0 250 250 250
0 0.029999999329447746 0.03999999910593033 -1 -0 -0 250 250 250
0 0.029999999329447746 0.05999999865889549 -1 -0 -0 250 250 250
0 0.029999999329447746 0.03999999910593033 -1 0 -0 250 250 250
0 0.029999999329447746 0.05999999865889549 -1 -0 -0 250 250 250
0 0.09000000357627869 0.03999999910593033 -1 0 -0 250 250 250
0 0.09000000357627869 0.05999999865889549 -1 -0 -0 250 250 250
0 0.09000000357627869 0.03999999910593033 -1 -0 -0 250 250 250
0 0.09000000357627869 0.05999999865889549 -1 0 -0 250 250 250
0 0.15000000596046448 0.03999999910593033 -1 -0 -0 250 250 250
0 0.15000000596046448 0.05999999865889549 -1 0 -0 250 250 250
0 0 0.05999999865889549 -1 0 -0 250 250 250
0 0 0.07999999821186066 -1 0 -0 250 250 250
0 0.05999999865889549 0.05999999865889549 -1 0 -0 250 250 250
0 0.05999999865889549 0.07999999821186066 -1 0 -0 250 250 250
0 0.11999999731779099 0.05999999865889549 -1 -0 -0 250 250 250
0 0.11999999731779099 0.07999999821186066 -1 0 -0 250 250 250
0 0.18000000715255737 0.05999999865889549 -1 -0 -0 250 250 250
0 0.18000000715255737 0.07999999821186066 -1 0 -0 250 250 250
0 0.05999999865889549 0.05999999865889549 -1 -0 -0 250 250 250
0 0.05999999865889549 0.07999999821186066 -1 -0 -0 250 250 250
0 0.11999999731779099 0.05999999865889549 -1 -0 -0 250 250 250
0 0.11999999731779099 0.07999999821186066 -1 -0 -0 250 250 250
0 0.15000000596046448 0.03999999910593033 -1 -0 -0 250 250 250
0 0.15000000596046448 0.05999999865889549 -1 -0 -0 250 250 250
0 0.18000000715255737 0.03999999910593033 -1 -0 -0 250 250 250
0 0.18000000715255737 0.05999999865889549 -1 -0 -0 250 250 250
0 0 0.07999999821186066 -1 -0 -0 250 250 250
0 0 0.10000000149011612 -1 -0 -0 250 250 250
0 0.029999999329447746 0.07999999821186066 -1 -0 -0 250 250 250
0 0.029999999329447746 0.10000000149011612 -1 -0 -0 250 250 250
0 0.029999999329447746 0.07999999821186066 -1 -0 -0 250 250 250
0 0.029999999329447746 0.10000000149011612 -1 -0 -0 250 250 250
0 0.09000000357627869 0.07999999821186066 -1 -0 -0 250 250 250
0 0.09000000357627869 0.10000000149011612 -1 -0 -0 250 250 250
0 0.09000000357627869 0.07999999821186066 -1 -0 -0 250 250 250
0 0.09000000357627869 0.10000000149011612 -1 -0 -0 250 250 250
0 0.15000000596046448 0.07999999821186066 -1 -0 -0 250 250 250
0 0.15000000596046448 0.10000000149011612 -1 -0 -0 250 250 250
0 0 0.10000000149011612 -1 -0 -0 250 250 250
0 0 0.11999999731779099 -1 0 -0 250 250 250
0 0.05999999865889549 0.10000000149011612 -1 -0 -0 250 250 250
0 0.05999999865889549 0.11999999731779099 -1 0 -0 250 250 250
0 0.11999999731779099 0.10000000149011612 -1 -0 -0 250 250 250
0 0.11999999731779099 0.11999999731779099 -1 -0 -0 250 250 250
0 0.18000000715255737 0.10000000149011612 -1 -0 -0 250 250 250
0 0.18000000715255737 0.11999999731779099 -1 -0 -0 250 250 250
0 0.05999999865889549 0.10000000149011612 -1 0 -0 250 250 250
0 0.05999999865889549 0.11999999731779099 -1 -0 -0 250 250 250
0 0.11999999731779099 0.10000000149011612 -1 0 -0 250 250 250
0 0.11999999731779099 0.11999999731779099 -1 -0 -0 250 250 250
0 0.15000000596046448 0.07999999821186066 -1 -0 -0 250 250 250
0 0.15000000596046448 0.10000000149011612 -1 -0 -0 250 250 250
0 0.18000000715255737 0.07999999821186066 -1 -0 -0 250 250 250
0 0.18000000715255737 0.10000000149011612 -1 -0 -0 250 250 250
0 0 0.11999999731779099 -1 -0 -0 250 250 250
0 0 0.14000000059604645 -1 -0 -0 250 250 250
0 0.029999999329447746 0.11999999731779099 -1 -0 -0 250 250 250
0 0.029999999329447746 0.14000000059604645 -1 -0 -0 250 250 250
0 0.029999999329447746 0.11999999731779099 -1 -0 -0 250 250 250
0 0.029999999329447746 0.14000000059604645 -1 -0 -0 250 250 250
0 0.09000000357627869 0.11999999731779099 -1 -0 -0 250 250 250
0 0.09000000357627869 0.14000000059604645 -1 -0 -0 250 250 250
0 0.09000000357627869 0.11999999731779099 -1 -0 -0 250 250 250
0 0.09000000357627869 0.14000000059604645 -1 -0 -0 250 250 250
0 0.15000000596046448 0.11999999731779099 -1 -0 -0 250 250 250
0 0.15000000596046448 0.14000000059604645 -1 -0 -0 250 250 250
0 0 0.14000000059604645 -1 0 -0 250 250 250
0 0 0.1599999964237213 -1 0 -0 250 250 250
0 0.05999999865889549 0.14000000059604645 -1 0 -0 250 250 250
0 0.05999999865889549 0.1599999964237213 -1 0 -0 250 250 250
0 0.11999999731779099 0.14000000059604645 -1 -0 -0 250 250 250
0 0.11999999731779099 0.1599999964237213 -1 -0 -0 250 250 250
0 0.18000000715255737 0.14000000059604645 -1 -0 -0 250 250 250
0 0.18000000715255737 0.1599999964237213 -1 -0 -0 250 250 250
0 0.05999999865889549 0.14000000059604645 -1 -0 -0 250 250 250
0 0.05999999865889549 0.1599999964237213 -1 -0 -0 250 250 250
0 0.11999999731779099 0.14000000059604645 -1 -0 -0 250 250 250
0 0.11999999731779099 0.1599999964237213 -1 -0 -0 250 250 250
0 0.15000000596046448 0.11999999731779099 -1 -0 -0 250 250 250
0 0.15000000596046448 0.14000000059604645 -1 -0 -0 250 250 250
0 0.18000000715255737 0.11999999731779099 -1 -0 -0 250 250 250
0 0.18000000715255737 0.14000000059604645 -1 -0 -0 250 250 250
4 3 2 0 1
4 7 6 4 5
4 11 10 8 9
4 15 14 12 13
4 19 18 16 17
4 23 22 20 21
4 27 26 24 25
4 31 30 28 29
4 35 34 32 33
4 39 38 36 37
4 43 42 40 41
4 47 46 44 45
4 51 50 48 49
4 55 54 52 53
4 59 58 56 57
4 63 62 60 61
4 67 66 64 65
4 71 70 68 69
4 75 74 72 73
4 79 78 76 77
4 83 82 80 81
4 87 86 84 85
4 91 90 88 89
4 95 94 92 93
4 99 98 96 97
4 103 102 100 101
4 107 106 104 105
4 111 110 108 109
0 0 0 255 250 250 250 255 0 0 0 255 255 255 255 255 0 0
