ply
format ascii 1.0
comment File exported by Rhinoceros Version 8
element vertex 532
property float x
property float y
property float z
property float nx
property float ny
property float nz
property uchar red
property uchar green
property uchar blue
element face 133
property list uchar uint vertex_indices
element material 1
property uchar ambient_red
property uchar ambient_green
property uchar ambient_blue
property uchar ambient_alpha
property uchar diffuse_red
property uchar diffuse_green
property uchar diffuse_blue
property uchar diffuse_alpha
property uchar emissive_red
property uchar emissive_green
property uchar emissive_blue
property uchar emissive_alpha
property uchar specular_red
property uchar specular_green
property uchar specular_blue
property uchar specular_alpha
property double shine
property double transparency
end_header
0 0 0.25999999046325684 -1 -0 -0 250 250 250
0 0 0.2800000011920929 -1 -0 -0 250 250 250
0 0.029999999329447746 0.25999999046325684 -1 -0 -0 250 250 250
0 0.029999999329447746 0.2800000011920929 -1 -0 -0 250 250 250
0 0.5099999904632568 0.25999999046325684 -1 -0 -0 250 250 250
0 0.5099999904632568 0.2800000011920929 -1 -0 -0 250 250 250
0 0.5400000214576721 0.25999999046325684 -1 -0 -0 250 250 250
0 0.5400000214576721 0.2800000011920929 -1 -0 -0 250 250 250
0 0.44999998807907104 0.25999999046325684 -1 -0 -0 250 250 250
0 0.44999998807907104 0.2800000011920929 -1 -0 -0 250 250 250
0 0.5099999904632568 0.25999999046325684 -1 -0 -0 250 250 250
0 0.5099999904632568 0.2800000011920929 -1 -0 -0 250 250 250
0 0.38999998569488525 0.25999999046325684 -1 -0 -0 250 250 250
0 0.38999998569488525 0.2800000011920929 -1 -0 -0 250 250 250
0 0.44999998807907104 0.25999999046325684 -1 -0 -0 250 250 250
0 0.44999998807907104 0.2800000011920929 -1 -0 -0 250 250 250
0 0.33000001311302185 0.25999999046325684 -1 -0 -0 250 250 250
0 0.33000001311302185 0.2800000011920929 -1 -0 -0 250 250 250
0 0.38999998569488525 0.25999999046325684 -1 -0 -0 250 250 250
0 0.38999998569488525 0.2800000011920929 -1 -0 -0 250 250 250
0 0.27000001072883606 0.25999999046325684 -1 -0 -0 250 250 250
0 0.27000001072883606 0.2800000011920929 -1 -0 -0 250 250 250
0 0.33000001311302185 0.25999999046325684 -1 -0 -0 250 250 250
0 0.33000001311302185 0.2800000011920929 -1 -0 -0 250 250 250
0 0.20999999344348907 0.25999999046325684 -1 -0 -0 250 250 250
0 0.20999999344348907 0.2800000011920929 -1 -0 -0 250 250 250
0 0.27000001072883606 0.25999999046325684 -1 -0 -0 250 250 250
0 0.27000001072883606 0.2800000011920929 -1 -0 -0 250 250 250
0 0.15000000596046448 0.25999999046325684 -1 -0 -0 250 250 250
0 0.15000000596046448 0.2800000011920929 -1 -0 -0 250 250 250
0 0.20999999344348907 0.25999999046325684 -1 -0 -0 250 250 250
0 0.20999999344348907 0.2800000011920929 -1 -0 -0 250 250 250
0 0.09000000357627869 0.25999999046325684 -1 -0 -0 250 250 250
0 0.09000000357627869 0.2800000011920929 -1 -0 -0 250 250 250
0 0.15000000596046448 0.25999999046325684 -1 -0 -0 250 250 250
0 0.15000000596046448 0.2800000011920929 -1 -0 -0 250 250 250
0 0.029999999329447746 0.25999999046325684 -1 -0 -0 250 250 250
0 0.029999999329447746 0.2800000011920929 -1 -0 -0 250 250 250
0 0.09000000357627869 0.25999999046325684 -1 -0 -0 250 250 250
0 0.09000000357627869 0.2800000011920929 -1 -0 -0 250 250 250
0 0.47999998927116394 0.23999999463558197 -1 -0 -0 250 250 250
0 0.47999998927116394 0.25999999046325684 -1 -0 -0 250 250 250
0 0.5400000214576721 0.23999999463558197 -1 -0 -0 250 250 250
0 0.5400000214576721 0.25999999046325684 -1 -0 -0 250 250 250
0 0.41999998688697815 0.23999999463558197 -1 -0 -0 250 250 250
0 0.41999998688697815 0.25999999046325684 -1 -0 -0 250 250 250
0 0.47999998927116394 0.23999999463558197 -1 -0 -0 250 250 250
0 0.47999998927116394 0.25999999046325684 -1 -0 -0 250 250 250
0 0.36000001430511475 0.23999999463558197 -1 -0 -0 250 250 250
0 0.36000001430511475 0.25999999046325684 -1 -0 -0 250 250 250
0 0.41999998688697815 0.23999999463558197 -1 -0 -0 250 250 250
0 0.41999998688697815 0.25999999046325684 -1 -0 -0 250 250 250
0 0.30000001192092896 0.23999999463558197 -1 -0 -0 250 250 250
0 0.30000001192092896 0.25999999046325684 -1 -0 -0 250 250 250
0 0.36000001430511475 0.23999999463558197 -1 -0 -0 250 250 250
0 0.36000001430511475 0.25999999046325684 -1 -0 -0 250 250 250
0 0.23999999463558197 0.23999999463558197 -1 -0 -0 250 250 250
0 0.23999999463558197 0.25999999046325684 -1 -0 -0 250 250 250
0 0.30000001192092896 0.23999999463558197 -1 -0 -0 250 250 250
0 0.30000001192092896 0.25999999046325684 -1 -0 -0 250 250 250
0 0.18000000715255737 0.23999999463558197 -1 -0 -0 250 250 250
0 0.18000000715255737 0.25999999046325684 -1 -0 -0 250 250 250
0 0.23999999463558197 0.23999999463558197 -1 -0 -0 250 250 250
0 0.23999999463558197 0.25999999046325684 -1 -0 -0 250 250 250
0 0.11999999731779099 0.23999999463558197 -1 -0 -0 250 250 250
0 0.11999999731779099 0.25999999046325684 -1 -0 -0 250 250 250
0 0.18000000715255737 0.23999999463558197 -1 -0 -0 250 250 250
0 0.18000000715255737 0.25999999046325684 -1 -0 -0 250 250 250
0 0.05999999865889549 0.23999999463558197 -1 -0 -0 250 250 250
0 0.05999999865889549 0.25999999046325684 -1 -0 -0 250 250 250
0 0.11999999731779099 0.23999999463558197 -1 -0 -0 250 250 250
0 0.11999999731779099 0.25999999046325684 -1 -0 -0 250 250 250
0 0 0.23999999463558197 -1 -0 -0 250 250 250
0 0 0.25999999046325684 -1 -0 -0 250 250 250
0 0.05999999865889549 0.23999999463558197 -1 -0 -0 250 250 250
0 0.05999999865889549 0.25999999046325684 -1 -0 -0 250 250 250
0 0 0.2199999988079071 -1 -0 -0 250 250 250
0 0 0.23999999463558197 -1 -0 -0 250 250 250
0 0.029999999329447746 0.2199999988079071 -1 -0 -0 250 250 250
0 0.029999999329447746 0.23999999463558197 -1 -0 -0 250 250 250
0 0.5099999904632568 0.2199999988079071 -1 -0 -0 250 250 250
0 0.5099999904632568 0.23999999463558197 -1 -0 -0 250 250 250
0 0.5400000214576721 0.2199999988079071 -1 -0 -0 250 250 250
0 0.5400000214576721 0.23999999463558197 -1 -0 -0 250 250 250
0 0.44999998807907104 0.2199999988079071 -1 -0 -0 250 250 250
0 0.44999998807907104 0.23999999463558197 -1 -0 -0 250 250 250
0 0.5099999904632568 0.2199999988079071 -1 -0 -0 250 250 250
0 0.5099999904632568 0.23999999463558197 -1 -0 -0 250 250 250
0 0.38999998569488525 0.2199999988079071 -1 -0 -0 250 250 250
0 0.38999998569488525 0.23999999463558197 -1 -0 -0 250 250 250
0 0.44999998807907104 0.2199999988079071 -1 -0 -0 250 250 250
0 0.44999998807907104 0.23999999463558197 -1 -0 -0 250 250 250
0 0.33000001311302185 0.2199999988079071 -1 -0 -0 250 250 250
0 0.33000001311302185 0.23999999463558197 -1 -0 -0 250 250 250
0 0.38999998569488525 0.2199999988079071 -1 -0 -0 250 250 250
0 0.38999998569488525 0.23999999463558197 -1 -0 -0 250 250 250
0 0.27000001072883606 0.2199999988079071 -1 -0 -0 250 250 250
0 0.27000001072883606 0.23999999463558197 -1 -0 -0 250 250 250
0 0.33000001311302185 0.2199999988079071 -1 -0 -0 250 250 250
0 0.33000001311302185 0.23999999463558197 -1 -0 -0 250 250 250
0 0.20999999344348907 0.2199999988079071 -1 -0 -0 250 250 250
0 0.20999999344348907 0.23999999463558197 -1 -0 -0 250 250 250
0 0.27000001072883606 0.2199999988079071 -1 -0 -0 250 250 250
0 0.27000001072883606 0.23999999463558197 -1 -0 -0 250 250 250
0 0.15000000596046448 0.2199999988079071 -1 -0 -0 250 250 250
0 0.15000000596046448 0.23999999463558197 -1 -0 -0 250 250 250
0 0.20999999344348907 0.2199999988079071 -1 -0 -0 250 250 250
0 0.20999999344348907 0.23999999463558197 -1 -0 -0 250 250 250
0 0.09000000357627869 0.2199999988079071 -1 -0 -0 250 250 250
0 0.09000000357627869 0.23999999463558197 -1 -0 -0 250 250 250
0 0.15000000596046448 0.2199999988079071 -1 -0 -0 250 250 250
0 0.15000000596046448 0.23999999463558197 -1 -0 -0 250 250 250
0 0.029999999329447746 0.2199999988079071 -1 -0 -0 250 250 250
0 0.029999999329447746 0.23999999463558197 -1 -0 -0 250 250 250
0 0.09000000357627869 0.2199999988079071 -1 -0 -0 250 250 250
0 0.09000000357627869 0.23999999463558197 -1 -0 -0 250 250 250
0 0.47999998927116394 0.20000000298023224 -1 -0 -0 250 250 250
0 0.47999998927116394 0.2199999988079071 -1 -0 -0 250 250 250
0 0.5400000214576721 0.20000000298023224 -1 -0 -0 250 250 250
0 0.5400000214576721 0.2199999988079071 -1 -0 -0 250 250 250
0 0.41999998688697815 0.20000000298023224 -1 -0 -0 250 250 250
0 0.41999998688697815 0.2199999988079071 -1 -0 -0 250 250 250
0 0.47999998927116394 0.20000000298023224 -1 -0 -0 250 250 250
0 0.47999998927116394 0.2199999988079071 -1 -0 -0 250 250 250
0 0.36000001430511475 0.20000000298023224 -1 -0 -0 250 250 250
0 0.36000001430511475 0.2199999988079071 -1 -0 -0 250 250 250
0 0.41999998688697815 0.20000000298023224 -1 -0 -0 250 250 250
0 0.41999998688697815 0.2199999988079071 -1 -0 -0 250 250 250
0 0.30000001192092896 0.20000000298023224 -1 -0 -0 250 250 250
0 0.30000001192092896 0.2199999988079071 -1 -0 -0 250 250 250
0 0.36000001430511475 0.20000000298023224 -1 -0 -0 250 250 250
0 0.36000001430511475 0.2199999988079071 -1 -0 -0 250 250 250
0 0.23999999463558197 0.20000000298023224 -1 -0 -0 250 250 250
0 0.23999999463558197 0.2199999988079071 -1 -0 -0 250 250 250
0 0.30000001192092896 0.20000000298023224 -1 -0 -0 250 250 250
0 0.30000001192092896 0.2199999988079071 -1 -0 -0 250 250 250
0 0.18000000715255737 0.20000000298023224 -1 -0 -0 250 250 250
0 0.18000000715255737 0.2199999988079071 -1 -0 -0 250 250 250
0 0.23999999463558197 0.20000000298023224 -1 -0 -0 250 250 250
0 0.23999999463558197 0.2199999988079071 -1 -0 -0 250 250 250
0 0.11999999731779099 0.20000000298023224 -1 -0 -0 250 250 250
0 0.11999999731779099 0.2199999988079071 -1 -0 -0 250 250 250
0 0.18000000715255737 0.20000000298023224 -1 -0 -0 250 250 250
0 0.18000000715255737 0.2199999988079071 -1 -0 -0 250 250 250
0 0.05999999865889549 0.20000000298023224 -1 -0 -0 250 250 250
0 0.05999999865889549 0.2199999988079071 -1 -0 -0 250 250 250
0 0.11999999731779099 0.20000000298023224 -1 -0 -0 250 250 250
0 0.11999999731779099 0.2199999988079071 -1 -0 -0 250 250 250
0 0 0.20000000298023224 -1 -0 -0 250 250 250
0 0 0.2199999988079071 -1 -0 -0 250 250 250
0 0.05999999865889549 0.20000000298023224 -1 -0 -0 250 250 250
0 0.05999999865889549 0.2199999988079071 -1 -0 -0 250 250 250
0 0 0.18000000715255737 -1 -0 -0 250 250 250
0 0 0.20000000298023224 -1 -0 -0 250 250 250
0 0.029999999329447746 0.18000000715255737 -1 -0 -0 250 250 250
0 0.029999999329447746 0.20000000298023224 -1 -0 -0 250 250 250
0 0.5099999904632568 0.18000000715255737 -1 -0 -0 250 250 250
0 0.5099999904632568 0.20000000298023224 -1 -0 -0 250 250 250
0 0.5400000214576721 0.18000000715255737 -1 -0 -0 250 250 250
0 0.5400000214576721 0.20000000298023224 -1 -0 -0 250 250 250
0 0.44999998807907104 0.18000000715255737 -1 -0 -0 250 250 250
0 0.44999998807907104 0.20000000298023224 -1 -0 -0 250 250 250
0 0.5099999904632568 0.18000000715255737 -1 -0 -0 250 250 250
0 0.5099999904632568 0.20000000298023224 -1 -0 -0 250 250 250
0 0.38999998569488525 0.18000000715255737 -1 -0 -0 250 250 250
0 0.38999998569488525 0.20000000298023224 -1 -0 -0 250 250 250
0 0.44999998807907104 0.18000000715255737 -1 -0 -0 250 250 250
0 0.44999998807907104 0.20000000298023224 -1 -0 -0 250 250 250
0 0.33000001311302185 0.18000000715255737 -1 -0 -0 250 250 250
0 0.33000001311302185 0.20000000298023224 -1 -0 -0 250 250 250
0 0.38999998569488525 0.18000000715255737 -1 -0 -0 250 250 250
0 0.38999998569488525 0.20000000298023224 -1 -0 -0 250 250 250
0 0.27000001072883606 0.18000000715255737 -1 -0 -0 250 250 250
0 0.27000001072883606 0.20000000298023224 -1 -0 -0 250 250 250
0 0.33000001311302185 0.18000000715255737 -1 -0 -0 250 250 250
0 0.33000001311302185 0.20000000298023224 -1 -0 -0 250 250 250
0 0.20999999344348907 0.18000000715255737 -1 -0 -0 250 250 250
0 0.20999999344348907 0.20000000298023224 -1 -0 -0 250 250 250
0 0.27000001072883606 0.18000000715255737 -1 -0 -0 250 250 250
0 0.27000001072883606 0.20000000298023224 -1 -0 -0 250 250 250
0 0.15000000596046448 0.18000000715255737 -1 -0 -0 250 250 250
0 0.15000000596046448 0.20000000298023224 -1 -0 -0 250 250 250
0 0.20999999344348907 0.18000000715255737 -1 -0 -0 250 250 250
0 0.20999999344348907 0.20000000298023224 -1 -0 -0 250 250 250
0 0.09000000357627869 0.18000000715255737 -1 -0 -0 250 250 250
0 0.09000000357627869 0.20000000298023224 -1 -0 -0 250 250 250
0 0.15000000596046448 0.18000000715255737 -1 -0 -0 250 250 250
0 0.15000000596046448 0.20000000298023224 -1 -0 -0 250 250 250
0 0.029999999329447746 0.18000000715255737 -1 -0 -0 250 250 250
0 0.029999999329447746 0.20000000298023224 -1 -0 -0 250 250 250
0 0.09000000357627869 0.18000000715255737 -1 -0 -0 250 250 250
0 0.09000000357627869 0.20000000298023224 -1 -0 -0 250 250 250
0 0.47999998927116394 0.1599999964237213 -1 -0 -0 250 250 250
0 0.47999998927116394 0.18000000715255737 -1 -0 -0 250 250 250
0 0.5400000214576721 0.1599999964237213 -1 -0 -0 250 250 250
0 0.5400000214576721 0.18000000715255737 -1 -0 -0 250 250 250
0 0.41999998688697815 0.1599999964237213 -1 -0 -0 250 250 250
0 0.41999998688697815 0.18000000715255737 -1 -0 -0 250 250 250
0 0.47999998927116394 0.1599999964237213 -1 -0 -0 250 250 250
0 0.47999998927116394 0.18000000715255737 -1 -0 -0 250 250 250
0 0.36000001430511475 0.1599999964237213 -1 -0 -0 250 250 250
0 0.36000001430511475 0.18000000715255737 -1 -0 -0 250 250 250
0 0.41999998688697815 0.1599999964237213 -1 -0 -0 250 250 250
0 0.41999998688697815 0.18000000715255737 -1 -0 -0 250 250 250
0 0.30000001192092896 0.1599999964237213 -1 -0 -0 250 250 250
0 0.30000001192092896 0.18000000715255737 -1 -0 -0 250 250 250
0 0.36000001430511475 0.1599999964237213 -1 -0 -0 250 250 250
0 0.36000001430511475 0.18000000715255737 -1 -0 -0 250 250 250
0 0.23999999463558197 0.1599999964237213 -1 -0 -0 250 250 250
0 0.23999999463558197 0.18000000715255737 -1 -0 -0 250 250 250
0 0.30000001192092896 0.1599999964237213 -1 -0 -0 250 250 250
0 0.30000001192092896 0.18000000715255737 -1 -0 -0 250 250 250
0 0.18000000715255737 0.1599999964237213 -1 -0 -0 250 250 250
0 0.18000000715255737 0.18000000715255737 -1 -0 -0 250 250 250
0 0.23999999463558197 0.1599999964237213 -1 -0 -0 250 250 250
0 0.23999999463558197 0.18000000715255737 -1 -0 -0 250 250 250
0 0.11999999731779099 0.1599999964237213 -1 -0 -0 250 250 250
0 0.11999999731779099 0.18000000715255737 -1 -0 -0 250 250 250
0 0.18000000715255737 0.1599999964237213 -1 -0 -0 250 250 250
0 0.18000000715255737 0.18000000715255737 -1 -0 -0 250 250 250
0 0.05999999865889549 0.1599999964237213 -1 -0 -0 250 250 250
0 0.05999999865889549 0.18000000715255737 -1 -0 -0 250 250 250
0 0.11999999731779099 0.1599999964237213 -1 -0 -0 250 250 250
0 0.11999999731779099 0.18000000715255737 -1 -0 -0 250 250 250
0 0 0.1599999964237213 -1 -0 -0 250 250 250
0 0 0.18000000715255737 -1 -0 -0 250 250 250
0 0.05999999865889549 0.1599999964237213 -1 -0 -0 250 250 250
0 0.05999999865889549 0.18000000715255737 -1 -0 -0 250 250 250
0 0 0.14000000059604645 -1 -0 -0 250 250 250
0 0 0.1599999964237213 -1 -0 -0 250 250 250
0 0.029999999329447746 0.14000000059604645 -1 -0 -0 250 250 250
0 0.029999999329447746 0.1599999964237213 -1 -0 -0 250 250 250
0 0.5099999904632568 0.14000000059604645 -1 -0 -0 250 250 250
0 0.5099999904632568 0.1599999964237213 -1 -0 -0 250 250 250
0 0.5400000214576721 0.14000000059604645 -1 -0 -0 250 250 250
0 0.5400000214576721 0.1599999964237213 -1 -0 -0 250 250 250
0 0.44999998807907104 0.14000000059604645 -1 -0 -0 250 250 250
0 0.44999998807907104 0.1599999964237213 -1 -0 -0 250 250 250
0 0.5099999904632568 0.14000000059604645 -1 -0 -0 250 250 250
0 0.5099999904632568 0.1599999964237213 -1 -0 -0 250 250 250
0 0.38999998569488525 0.14000000059604645 -1 -0 -0 250 250 250
0 0.38999998569488525 0.1599999964237213 -1 -0 -0 250 250 250
0 0.44999998807907104 0.14000000059604645 -1 -0 -0 250 250 250
0 0.44999998807907104 0.1599999964237213 -1 -0 -0 250 250 250
0 0.33000001311302185 0.14000000059604645 -1 -0 -0 250 250 250
0 0.33000001311302185 0.1599999964237213 -1 -0 -0 250 250 250
0 0.38999998569488525 0.14000000059604645 -1 -0 -0 250 250 250
0 0.38999998569488525 0.1599999964237213 -1 -0 -0 250 250 250
0 0.27000001072883606 0.14000000059604645 -1 -0 -0 250 250 250
0 0.27000001072883606 0.1599999964237213 -1 -0 -0 250 250 250
0 0.33000001311302185 0.14000000059604645 -1 -0 -0 250 250 250
0 0.33000001311302185 0.1599999964237213 -1 -0 -0 250 250 250
0 0.20999999344348907 0.14000000059604645 -1 -0 -0 250 250 250
0 0.20999999344348907 0.1599999964237213 -1 -0 -0 250 250 250
0 0.27000001072883606 0.14000000059604645 -1 -0 -0 250 250 250
0 0.27000001072883606 0.1599999964237213 -1 -0 -0 250 250 250
0 0.15000000596046448 0.14000000059604645 -1 -0 -0 250 250 250
0 0.15000000596046448 0.1599999964237213 -1 -0 -0 250 250 250
0 0.20999999344348907 0.14000000059604645 -1 -0 -0 250 250 250
0 0.20999999344348907 0.1599999964237213 -1 -0 -0 250 250 250
0 0.09000000357627869 0.14000000059604645 -1 -0 -0 250 250 250
0 0.09000000357627869 0.1599999964237213 -1 -0 -0 250 250 250
0 0.15000000596046448 0.14000000059604645 -1 -0 -0 250 250 250
0 0.15000000596046448 0.1599999964237213 -1 -0 -0 250 250 250
0 0.029999999329447746 0.14000000059604645 -1 -0 -0 250 250 250
0 0.029999999329447746 0.1599999964237213 -1 -0 -0 250 250 250
0 0.09000000357627869 0.14000000059604645 -1 -0 -0 250 250 250
0 0.09000000357627869 0.1599999964237213 -1 -0 -0 250 250 250
0 0.47999998927116394 0.11999999731779099 -1 -0 -0 250 250 250
0 0.47999998927116394 0.14000000059604645 -1 -0 -0 250 250 250
0 0.5400000214576721 0.11999999731779099 -1 -0 -0 250 250 250
0 0.5400000214576721 0.14000000059604645 -1 -0 -0 250 250 250
0 0.41999998688697815 0.11999999731779099 -1 -0 -0 250 250 250
0 0.41999998688697815 0.14000000059604645 -1 -0 -0 250 250 250
0 0.47999998927116394 0.11999999731779099 -1 -0 -0 250 250 250
0 0.47999998927116394 0.14000000059604645 -1 -0 -0 250 250 250
0 0.36000001430511475 0.11999999731779099 -1 -0 -0 250 250 250
0 0.36000001430511475 0.14000000059604645 -1 -0 -0 250 250 250
0 0.41999998688697815 0.11999999731779099 -1 -0 -0 250 250 250
0 0.41999998688697815 0.14000000059604645 -1 -0 -0 250 250 250
0 0.30000001192092896 0.11999999731779099 -1 -0 -0 250 250 250
0 0.30000001192092896 0.14000000059604645 -1 -0 -0 250 250 250
0 0.36000001430511475 0.11999999731779099 -1 -0 -0 250 250 250
0 0.36000001430511475 0.14000000059604645 -1 -0 -0 250 250 250
0 0.23999999463558197 0.11999999731779099 -1 -0 -0 250 250 250
0 0.23999999463558197 0.14000000059604645 -1 -0 -0 250 250 250
0 0.30000001192092896 0.11999999731779099 -1 -0 -0 250 250 250
0 0.30000001192092896 0.14000000059604645 -1 -0 -0 250 250 250
0 0.18000000715255737 0.11999999731779099 -1 -0 -0 250 250 250
0 0.18000000715255737 0.14000000059604645 -1 -0 -0 250 250 250
0 0.23999999463558197 0.11999999731779099 -1 -0 -0 250 250 250
0 0.23999999463558197 0.14000000059604645 -1 -0 -0 250 250 250
0 0.11999999731779099 0.11999999731779099 -1 -0 -0 250 250 250
0 0.11999999731779099 0.14000000059604645 -1 -0 -0 250 250 250
0 0.18000000715255737 0.11999999731779099 -1 -0 -0 250 250 250
0 0.18000000715255737 0.14000000059604645 -1 -0 -0 250 250 250
0 0.05999999865889549 0.11999999731779099 -1 -0 -0 250 250 250
0 0.05999999865889549 0.14000000059604645 -1 -0 -0 250 250 250
0 0.11999999731779099 0.11999999731779099 -1 -0 -0 250 250 250
0 0.11999999731779099 0.14000000059604645 -1 -0 -0 250 250 250
0 0 0.11999999731779099 -1 -0 -0 250 250 250
0 0 0.14000000059604645 -1 -0 -0 250 250 250
0 0.05999999865889549 0.11999999731779099 -1 -0 -0 250 250 250
0 0.05999999865889549 0.14000000059604645 -1 -0 -0 250 250 250
0 0 0.10000000149011612 -1 -0 -0 250 250 250
0 0 0.11999999731779099 -1 -0 -0 250 250 250
0 0.029999999329447746 0.10000000149011612 -1 -0 -0 250 250 250
0 0.029999999329447746 0.11999999731779099 -1 -0 -0 250 250 250
0 0.5099999904632568 0.10000000149011612 -1 -0 -0 250 250 250
0 0.5099999904632568 0.11999999731779099 -1 -0 -0 250 250 250
0 0.5400000214576721 0.10000000149011612 -1 -0 -0 250 250 250
0 0.5400000214576721 0.11999999731779099 -1 -0 -0 250 250 250
0 0.44999998807907104 0.10000000149011612 -1 -0 -0 250 250 250
0 0.44999998807907104 0.11999999731779099 -1 -0 -0 250 250 250
0 0.5099999904632568 0.10000000149011612 -1 -0 -0 250 250 250
0 0.5099999904632568 0.11999999731779099 -1 -0 -0 250 250 250
0 0.38999998569488525 0.10000000149011612 -1 -0 -0 250 250 250
0 0.38999998569488525 0.11999999731779099 -1 -0 -0 250 250 250
0 0.44999998807907104 0.10000000149011612 -1 -0 -0 250 250 250
0 0.44999998807907104 0.11999999731779099 -1 -0 -0 250 250 250
0 0.33000001311302185 0.10000000149011612 -1 -0 -0 250 250 250
0 0.33000001311302185 0.11999999731779099 -1 -0 -0 250 250 250
0 0.38999998569488525 0.10000000149011612 -1 -0 -0 250 250 250
0 0.38999998569488525 0.11999999731779099 -1 -0 -0 250 250 250
0 0.27000001072883606 0.10000000149011612 -1 -0 -0 250 250 250
0 0.27000001072883606 0.11999999731779099 -1 -0 -0 250 250 250
0 0.33000001311302185 0.10000000149011612 -1 -0 -0 250 250 250
0 0.33000001311302185 0.11999999731779099 -1 -0 -0 250 250 250
0 0.20999999344348907 0.10000000149011612 -1 -0 -0 250 250 250
0 0.20999999344348907 0.11999999731779099 -1 -0 -0 250 250 250
0 0.27000001072883606 0.10000000149011612 -1 -0 -0 250 250 250
0 0.27000001072883606 0.11999999731779099 -1 -0 -0 250 250 250
0 0.15000000596046448 0.10000000149011612 -1 -0 -0 250 250 250
0 0.15000000596046448 0.11999999731779099 -1 -0 -0 250 250 250
0 0.20999999344348907 0.10000000149011612 -1 -0 -0 250 250 250
0 0.20999999344348907 0.11999999731779099 -1 -0 -0 250 250 250
0 0.09000000357627869 0.10000000149011612 -1 -0 -0 250 250 250
0 0.09000000357627869 0.11999999731779099 -1 -0 -0 250 250 250
0 0.15000000596046448 0.10000000149011612 -1 -0 -0 250 250 250
0 0.15000000596046448 0.11999999731779099 -1 -0 -0 250 250 250
0 0.029999999329447746 0.10000000149011612 -1 -0 -0 250 250 250
0 0.029999999329447746 0.11999999731779099 -1 -0 -0 250 250 250
0 0.09000000357627869 0.10000000149011612 -1 -0 -0 250 250 250
0 0.09000000357627869 0.11999999731779099 -1 -0 -0 250 250 250
0 0.47999998927116394 0.07999999821186066 -1 -0 -0 250 250 250
0 0.47999998927116394 0.10000000149011612 -1 -0 -0 250 250 250
0 0.5400000214576721 0.07999999821186066 -1 -0 -0 250 250 250
0 0.5400000214576721 0.10000000149011612 -1 -0 -0 250 250 250
0 0.41999998688697815 0.07999999821186066 -1 -0 -0 250 250 250
0 0.41999998688697815 0.10000000149011612 -1 -0 -0 250 250 250
0 0.47999998927116394 0.07999999821186066 -1 -0 -0 250 250 250
0 0.47999998927116394 0.10000000149011612 -1 -0 -0 250 250 250
0 0.36000001430511475 0.07999999821186066 -1 -0 -0 250 250 250
0 0.36000001430511475 0.10000000149011612 -1 -0 -0 250 250 250
0 0.41999998688697815 0.07999999821186066 -1 -0 -0 250 250 250
0 0.41999998688697815 0.10000000149011612 -1 -0 -0 250 250 250
0 0.30000001192092896 0.07999999821186066 -1 -0 -0 250 250 250
0 0.30000001192092896 0.10000000149011612 -1 -0 -0 250 250 250
0 0.36000001430511475 0.07999999821186066 -1 -0 -0 250 250 250
0 0.36000001430511475 0.10000000149011612 -1 -0 -0 250 250 250
0 0.23999999463558197 0.07999999821186066 -1 -0 -0 250 250 250
0 0.23999999463558197 0.10000000149011612 -1 -0 -0 250 250 250
0 0.30000001192092896 0.07999999821186066 -1 -0 -0 250 250 250
0 0.30000001192092896 0.10000000149011612 -1 -0 -0 250 250 250
0 0.18000000715255737 0.07999999821186066 -1 -0 -0 250 250 250
0 0.18000000715255737 0.10000000149011612 -1 -0 -0 250 250 250
0 0.23999999463558197 0.07999999821186066 -1 -0 -0 250 250 250
0 0.23999999463558197 0.10000000149011612 -1 -0 -0 250 250 250
0 0.11999999731779099 0.07999999821186066 -1 -0 -0 250 250 250
0 0.11999999731779099 0.10000000149011612 -1 -0 -0 250 250 250
0 0.18000000715255737 0.07999999821186066 -1 -0 -0 250 250 250
0 0.18000000715255737 0.10000000149011612 -1 -0 -0 250 250 250
0 0.05999999865889549 0.07999999821186066 -1 -0 -0 250 250 250
0 0.05999999865889549 0.10000000149011612 -1 -0 -0 250 250 250
0 0.11999999731779099 0.07999999821186066 -1 -0 -0 250 250 250
0 0.11999999731779099 0.10000000149011612 -1 -0 -0 250 250 250
0 0 0.07999999821186066 -1 -0 -0 250 250 250
0 0 0.10000000149011612 -1 -0 -0 250 250 250
0 0.05999999865889549 0.07999999821186066 -1 -0 -0 250 250 250
0 0.05999999865889549 0.10000000149011612 -1 -0 -0 250 250 250
0 0 0.05999999865889549 -1 -0 -0 250 250 250
0 0 0.07999999821186066 -1 -0 -0 250 250 250
0 0.029999999329447746 0.05999999865889549 -1 -0 -0 250 250 250
0 0.029999999329447746 0.07999999821186066 -1 -0 -0 250 250 250
0 0.5099999904632568 0.05999999865889549 -1 -0 -0 250 250 250
0 0.5099999904632568 0.07999999821186066 -1 -0 -0 250 250 250
0 0.5400000214576721 0.05999999865889549 -1 -0 -0 250 250 250
0 0.5400000214576721 0.07999999821186066 -1 -0 -0 250 250 250
0 0.44999998807907104 0.05999999865889549 -1 -0 -0 250 250 250
0 0.44999998807907104 0.07999999821186066 -1 -0 -0 250 250 250
0 0.5099999904632568 0.05999999865889549 -1 -0 -0 250 250 250
0 0.5099999904632568 0.07999999821186066 -1 -0 -0 250 250 250
0 0.38999998569488525 0.05999999865889549 -1 -0 -0 250 250 250
0 0.38999998569488525 0.07999999821186066 -1 -0 -0 250 250 250
0 0.44999998807907104 0.05999999865889549 -1 -0 -0 250 250 250
0 0.44999998807907104 0.07999999821186066 -1 -0 -0 250 250 250
0 0.33000001311302185 0.05999999865889549 -1 -0 -0 250 250 250
0 0.33000001311302185 0.07999999821186066 -1 -0 -0 250 250 250
0 0.38999998569488525 0.05999999865889549 -1 -0 -0 250 250 250
0 0.38999998569488525 0.07999999821186066 -1 -0 -0 250 250 250
0 0.27000001072883606 0.05999999865889549 -1 -0 -0 250 250 250
0 0.27000001072883606 0.07999999821186066 -1 -0 -0 250 250 250
0 0.33000001311302185 0.05999999865889549 -1 -0 -0 250 250 250
0 0.33000001311302185 0.07999999821186066 -1 -0 -0 250 250 250
0 0.20999999344348907 0.05999999865889549 -1 -0 -0 250 250 250
0 0.20999999344348907 0.07999999821186066 -1 -0 -0 250 250 250
0 0.27000001072883606 0.05999999865889549 -1 -0 -0 250 250 250
0 0.27000001072883606 0.07999999821186066 -1 -0 -0 250 250 250
0 0.15000000596046448 0.05999999865889549 -1 -0 -0 250 250 250
0 0.15000000596046448 0.07999999821186066 -1 -0 -0 250 250 250
0 0.20999999344348907 0.05999999865889549 -1 -0 -0 250 250 250
0 0.20999999344348907 0.07999999821186066 -1 -0 -0 250 250 250
0 0.09000000357627869 0.05999999865889549 -1 -0 -0 250 250 250
0 0.09000000357627869 0.07999999821186066 -1 -0 -0 250 250 250
0 0.15000000596046448 0.05999999865889549 -1 -0 -0 250 250 250
0 0.15000000596046448 0.07999999821186066 -1 -0 -0 250 250 250
0 0.029999999329447746 0.05999999865889549 -1 -0 -0 250 250 250
0 0.029999999329447746 0.07999999821186066 -1 -0 -0 250 250 250
0 0.09000000357627869 0.05999999865889549 -1 -0 -0 250 250 250
0 0.09000000357627869 0.07999999821186066 -1 -0 -0 250 250 250
0 0.47999998927116394 0.03999999910593033 -1 -0 -0 250 250 250
0 0.47999998927116394 0.05999999865889549 -1 -0 -0 250 250 250
0 0.5400000214576721 0.03999999910593033 -1 -0 -0 250 250 250
0 0.5400000214576721 0.05999999865889549 -1 -0 -0 250 250 250
0 0.41999998688697815 0.03999999910593033 -1 -0 -0 250 250 250
0 0.41999998688697815 0.05999999865889549 -1 -0 -0 250 250 250
0 0.47999998927116394 0.03999999910593033 -1 -0 -0 250 250 250
0 0.47999998927116394 0.05999999865889549 -1 -0 -0 250 250 250
0 0.36000001430511475 0.03999999910593033 -1 -0 -0 250 250 250
0 0.36000001430511475 0.05999999865889549 -1 -0 -0 250 250 250
0 0.41999998688697815 0.03999999910593033 -1 -0 -0 250 250 250
0 0.41999998688697815 0.05999999865889549 -1 -0 -0 250 250 250
0 0.30000001192092896 0.03999999910593033 -1 -0 -0 250 250 250
0 0.30000001192092896 0.05999999865889549 -1 -0 -0 250 250 250
0 0.36000001430511475 0.03999999910593033 -1 -0 -0 250 250 250
0 0.36000001430511475 0.05999999865889549 -1 -0 -0 250 250 250
0 0.23999999463558197 0.03999999910593033 -1 -0 -0 250 250 250
0 0.23999999463558197 0.05999999865889549 -1 -0 -0 250 250 250
0 0.30000001192092896 0.03999999910593033 -1 -0 -0 250 250 250
0 0.30000001192092896 0.05999999865889549 -1 -0 -0 250 250 250
0 0.18000000715255737 0.03999999910593033 -1 -0 -0 250 250 250
0 0.18000000715255737 0.05999999865889549 -1 -0 -0 250 250 250
0 0.23999999463558197 0.03999999910593033 -1 -0 -0 250 250 250
0 0.23999999463558197 0.05999999865889549 -1 -0 -0 250 250 250
0 0.11999999731779099 0.03999999910593033 -1 -0 -0 250 250 250
0 0.11999999731779099 0.05999999865889549 -1 -0 -0 250 250 250
0 0.18000000715255737 0.03999999910593033 -1 -0 -0 250 250 250
0 0.18000000715255737 0.05999999865889549 -1 -0 -0 250 250 250
0 0.05999999865889549 0.03999999910593033 -1 -0 -0 250 250 250
0 0.05999999865889549 0.05999999865889549 -1 -0 -0 250 250 250
0 0.11999999731779099 0.03999999910593033 -1 -0 -0 250 250 250
0 0.11999999731779099 0.05999999865889549 -1 -0 -0 250 250 250
0 0 0.03999999910593033 -1 -0 -0 250 250 250
0 0 0.05999999865889549 -1 -0 -0 250 250 250
0 0.05999999865889549 0.03999999910593033 -1 -0 -0 250 250 250
0 0.05999999865889549 0.05999999865889549 -1 -0 -0 250 250 250
0 0 0.019999999552965164 -1 -0 -0 250 250 250
0 0 0.03999999910593033 -1 -0 -0 250 250 250
0 0.029999999329447746 0.019999999552965164 -1 -0 -0 250 250 250
0 0.029999999329447746 0.03999999910593033 -1 -0 -0 250 250 250
0 0.5099999904632568 0.019999999552965164 -1 -0 -0 250 250 250
0 0.5099999904632568 0.03999999910593033 -1 -0 -0 250 250 250
0 0.5400000214576721 0.019999999552965164 -1 -0 -0 250 250 250
0 0.5400000214576721 0.03999999910593033 -1 -0 -0 250 250 250
0 0.44999998807907104 0.019999999552965164 -1 -0 -0 250 250 250
0 0.44999998807907104 0.03999999910593033 -1 -0 -0 250 250 250
0 0.5099999904632568 0.019999999552965164 -1 -0 -0 250 250 250
0 0.5099999904632568 0.03999999910593033 -1 -0 -0 250 250 250
0 0.38999998569488525 0.019999999552965164 -1 -0 -0 250 250 250
0 0.38999998569488525 0.03999999910593033 -1 -0 -0 250 250 250
0 0.44999998807907104 0.019999999552965164 -1 -0 -0 250 250 250
0 0.44999998807907104 0.03999999910593033 -1 -0 -0 250 250 250
0 0.33000001311302185 0.019999999552965164 -1 -0 -0 250 250 250
0 0.33000001311302185 0.03999999910593033 -1 -0 -0 250 250 250
0 0.38999998569488525 0.019999999552965164 -1 -0 -0 250 250 250
0 0.38999998569488525 0.03999999910593033 -1 -0 -0 250 250 250
0 0.27000001072883606 0.019999999552965164 -1 -0 -0 250 250 250
0 0.27000001072883606 0.03999999910593033 -1 -0 -0 250 250 250
0 0.33000001311302185 0.019999999552965164 -1 -0 -0 250 250 250
0 0.33000001311302185 0.03999999910593033 -1 -0 -0 250 250 250
0 0.20999999344348907 0.019999999552965164 -1 -0 -0 250 250 250
0 0.20999999344348907 0.03999999910593033 -1 -0 -0 250 250 250
0 0.27000001072883606 0.019999999552965164 -1 -0 -0 250 250 250
0 0.27000001072883606 0.03999999910593033 -1 -0 -0 250 250 250
0 0.15000000596046448 0.019999999552965164 -1 -0 -0 250 250 250
0 0.15000000596046448 0.03999999910593033 -1 -0 -0 250 250 250
0 0.20999999344348907 0.019999999552965164 -1 -0 -0 250 250 250
0 0.20999999344348907 0.03999999910593033 -1 -0 -0 250 250 250
0 0.09000000357627869 0.019999999552965164 -1 -0 -0 250 250 250
0 0.09000000357627869 0.03999999910593033 -1 -0 -0 250 250 250
0 0.15000000596046448 0.019999999552965164 -1 -0 -0 250 250 250
0 0.15000000596046448 0.03999999910593033 -1 -0 -0 250 250 250
0 0.029999999329447746 0.019999999552965164 -1 -0 -0 250 250 250
0 0.029999999329447746 0.03999999910593033 -1 -0 -0 250 250 250
0 0.09000000357627869 0.019999999552965164 -1 -0 -0 250 250 250
0 0.09000000357627869 0.03999999910593033 -1 -0 -0 250 250 250
0 0.47999998927116394 0 -1 -0 -0 250 250 250
0 0.47999998927116394 0.019999999552965164 -1 -0 -0 250 250 250
0 0.5400000214576721 0 -1 -0 -0 250 250 250
0 0.5400000214576721 0.019999999552965164 -1 -0 -0 250 250 250
0 0.41999998688697815 0 -1 -0 -0 250 250 250
0 0.41999998688697815 0.019999999552965164 -1 -0 -0 250 250 250
0 0.47999998927116394 0 -1 -0 -0 250 250 250
0 0.47999998927116394 0.019999999552965164 -1 -0 -0 250 250 250
0 0.36000001430511475 0 -1 -0 -0 250 250 250
0 0.36000001430511475 0.019999999552965164 -1 -0 -0 250 250 250
0 0.41999998688697815 0 -1 -0 -0 250 250 250
0 0.41999998688697815 0.019999999552965164 -1 -0 -0 250 250 250
0 0.30000001192092896 0 -1 -0 -0 250 250 250
0 0.30000001192092896 0.019999999552965164 -1 -0 -0 250 250 250
0 0.36000001430511475 0 -1 -0 -0 250 250 250
0 0.36000001430511475 0.019999999552965164 -1 -0 -0 250 250 250
0 0.23999999463558197 0 -1 -0 -0 250 250 250
0 0.23999999463558197 0.019999999552965164 -1 -0 -0 250 250 250
0 0.30000001192092896 0 -1 -0 -0 250 250 250
0 0.30000001192092896 0.019999999552965164 -1 -0 -0 250 250 250
0 0.18000000715255737 0 -1 -0 -0 250 250 250
0 0.18000000715255737 0.019999999552965164 -1 -0 -0 250 250 250
0 0.23999999463558197 0 -1 -0 -0 250 250 250
0 0.23999999463558197 0.019999999552965164 -1 -0 -0 250 250 250
0 0.11999999731779099 0 -1 -0 -0 250 250 250
0 0.11999999731779099 0.019999999552965164 -1 -0 -0 250 250 250
0 0.18000000715255737 0 -1 -0 -0 250 250 250
0 0.18000000715255737 0.019999999552965164 -1 -0 -0 250 250 250
0 0.05999999865889549 0 -1 -0 -0 250 250 250
0 0.05999999865889549 0.019999999552965164 -1 -0 -0 250 250 250
0 0.11999999731779099 0 -1 -0 -0 250 250 250
0 0.11999999731779099 0.019999999552965164 -1 -0 -0 250 250 250
0 0 0 -1 -0 -0 250 250 250
0 0 0.019999999552965164 -1 -0 -0 250 250 250
0 0.05999999865889549 0 -1 -0 -0 250 250 250
0 0.05999999865889549 0.019999999552965164 -1 -0 -0 250 250 250
4 3 2 0 1
4 7 6 4 5
4 11 10 8 9
4 15 14 12 13
4 19 18 16 17
4 23 22 20 21
4 27 26 24 25
4 31 30 28 29
4 35 34 32 33
4 39 38 36 37
4 43 42 40 41
4 47 46 44 45
4 51 50 48 49
4 55 54 52 53
4 59 58 56 57
4 63 62 60 61
4 67 66 64 65
4 71 70 68 69
4 75 74 72 73
4 79 78 76 77
4 83 82 80 81
4 87 86 84 85
4 91 90 88 89
4 95 94 92 93
4 99 98 96 97
4 103 102 100 101
4 107 106 104 105
4 111 110 108 109
4 115 114 112 113
4 119 118 116 117
4 123 122 120 121
4 127 126 124 125
4 131 130 128 129
4 135 134 132 133
4 139 138 136 137
4 143 142 140 141
4 147 146 144 145
4 151 150 148 149
4 155 154 152 153
4 159 158 156 157
4 163 162 160 161
4 167 166 164 165
4 171 170 168 169
4 175 174 172 173
4 179 178 176 177
4 183 182 180 181
4 187 186 184 185
4 191 190 188 189
4 195 194 192 193
4 199 198 196 197
4 203 202 200 201
4 207 206 204 205
4 211 210 208 209
4 215 214 212 213
4 219 218 216 217
4 223 222 220 221
4 227 226 224 225
4 231 230 228 229
4 235 234 232 233
4 239 238 236 237
4 243 242 240 241
4 247 246 244 245
4 251 250 248 249
4 255 254 252 253
4 259 258 256 257
4 263 262 260 261
4 267 266 264 265
4 271 270 268 269
4 275 274 272 273
4 279 278 276 277
4 283 282 280 281
4 287 286 284 285
4 291 290 288 289
4 295 294 292 293
4 299 298 296 297
4 303 302 300 301
4 307 306 304 305
4 311 310 308 309
4 315 314 312 313
4 319 318 316 317
4 323 322 320 321
4 327 326 324 325
4 331 330 328 329
4 335 334 332 333
4 339 338 336 337
4 343 342 340 341
4 347 346 344 345
4 351 350 348 349
4 355 354 352 353
4 359 358 356 357
4 363 362 360 361
4 367 366 364 365
4 371 370 368 369
4 375 374 372 373
4 379 378 376 377
4 383 382 380 381
4 387 386 384 385
4 391 390 388 389
4 395 394 392 393
4 399 398 396 397
4 403 402 400 401
4 407 406 404 405
4 411 410 408 409
4 415 414 412 413
4 419 418 416 417
4 423 422 420 421
4 427 426 424 425
4 431 430 428 429
4 435 434 432 433
4 439 438 436 437
4 443 442 440 441
4 447 446 444 445
4 451 450 448 449
4 455 454 452 453
4 459 458 456 457
4 463 462 460 461
4 467 466 464 465
4 471 470 468 469
4 475 474 472 473
4 479 478 476 477
4 483 482 480 481
4 487 486 484 485
4 491 490 488 489
4 495 494 492 493
4 499 498 496 497
4 503 502 500 501
4 507 506 504 505
4 511 510 508 509
4 515 514 512 513
4 519 518 516 517
4 523 522 520 521
4 527 526 524 525
4 531 530 528 529
0 0 0 255 250 250 250 255 0 0 0 255 255 255 255 255 0 0
