ply
format ascii 1.0
comment File exported by Rhinoceros Version 8
element vertex 112
property float x
property float y
property float z
property float nx
property float ny
property float nz
property uchar red
property uchar green
property uchar blue
element face 28
property list uchar uint vertex_indices
element material 1
property uchar ambient_red
property uchar ambient_green
property uchar ambient_blue
property uchar ambient_alpha
property uchar diffuse_red
property uchar diffuse_green
property uchar diffuse_blue
property uchar diffuse_alpha
property uchar emissive_red
property uchar emissive_green
property uchar emissive_blue
property uchar emissive_alpha
property uchar specular_red
property uchar specular_green
property uchar specular_blue
property uchar specular_alpha
property double shine
property double transparency
end_header
0.15000000596046448 0 0.11999999731779099 0 -1 0 250 250 250
0.15000000596046448 0 0.14000000059604645 0 -1 0 250 250 250
0.18000000715255737 0 0.11999999731779099 0 -1 0 250 250 250
0.18000000715255737 0 0.14000000059604645 0 -1 0 250 250 250
0.05999999865889549 0 0.14000000059604645 0 -1 0 250 250 250
0.05999999865889549 0 0.1599999964237213 0 -1 0 250 250 250
0.11999999731779099 0 0.14000000059604645 0 -1 0 250 250 250
0.11999999731779099 0 0.1599999964237213 0 -1 0 250 250 250
0.11999999731779099 0 0.14000000059604645 0 -1 0 250 250 250
0.11999999731779099 0 0.1599999964237213 0 -1 0 250 250 250
0.18000000715255737 0 0.14000000059604645 0 -1 0 250 250 250
0.18000000715255737 0 0.1599999964237213 0 -1 0 250 250 250
0 0 0.14000000059604645 0 -1 0 250 250 250
0 0 0.1599999964237213 0 -1 0 250 250 250
0.05999999865889549 0 0.14000000059604645 0 -1 0 250 250 250
0.05999999865889549 0 0.1599999964237213 0 -1 0 250 250 250
0.09000000357627869 0 0.11999999731779099 0 -1 0 250 250 250
0.09000000357627869 0 0.14000000059604645 0 -1 0 250 250 250
0.15000000596046448 0 0.11999999731779099 0 -1 0 250 250 250
0.15000000596046448 0 0.14000000059604645 0 -1 0 250 250 250
0.029999999329447746 0 0.11999999731779099 0 -1 0 250 250 250
0.029999999329447746 0 0.14000000059604645 0 -1 0 250 250 250
0.09000000357627869 0 0.11999999731779099 0 -1 0 250 250 250
0.09000000357627869 0 0.14000000059604645 0 -1 0 250 250 250
0 0 0.11999999731779099 0 -1 0 250 250 250
0 0 0.14000000059604645 0 -1 0 250 250 250
0.029999999329447746 0 0.11999999731779099 0 -1 0 250 250 250
0.029999999329447746 0 0.14000000059604645 0 -1 0 250 250 250
0.15000000596046448 0 0.07999999821186066 0 -1 0 250 250 250
0.15000000596046448 0 0.10000000149011612 0 -1 0 250 250 250
0.18000000715255737 0 0.07999999821186066 0 -1 0 250 250 250
0.18000000715255737 0 0.10000000149011612 0 -1 0 250 250 250
0.05999999865889549 0 0.10000000149011612 0 -1 0 250 250 250
0.05999999865889549 0 0.11999999731779099 0 -1 0 250 250 250
0.11999999731779099 0 0.10000000149011612 0 -1 0 250 250 250
0.11999999731779099 0 0.11999999731779099 0 -1 0 250 250 250
0.11999999731779099 0 0.10000000149011612 0 -1 0 250 250 250
0.11999999731779099 0 0.11999999731779099 0 -1 0 250 250 250
0.18000000715255737 0 0.10000000149011612 0 -1 0 250 250 250
0.18000000715255737 0 0.11999999731779099 0 -1 0 250 250 250
0 0 0.10000000149011612 0 -1 0 250 250 250
0 0 0.11999999731779099 0 -1 0 250 250 250
0.05999999865889549 0 0.10000000149011612 0 -1 0 250 250 250
0.05999999865889549 0 0.11999999731779099 0 -1 0 250 250 250
0.09000000357627869 0 0.07999999821186066 0 -1 0 250 250 250
0.09000000357627869 0 0.10000000149011612 0 -1 0 250 250 250
0.15000000596046448 0 0.07999999821186066 0 -1 0 250 250 250
0.15000000596046448 0 0.10000000149011612 0 -1 0 250 250 250
0.029999999329447746 0 0.07999999821186066 0 -1 0 250 250 250
0.029999999329447746 0 0.10000000149011612 0 -1 0 250 250 250
0.09000000357627869 0 0.07999999821186066 0 -1 0 250 250 250
0.09000000357627869 0 0.10000000149011612 0 -1 0 250 250 250
0 0 0.07999999821186066 0 -1 0 250 250 250
0 0 0.10000000149011612 0 -1 0 250 250 250
0.029999999329447746 0 0.07999999821186066 0 -1 0 250 250 250
0.029999999329447746 0 0.10000000149011612 0 -1 0 250 250 250
0.15000000596046448 0 0.03999999910593033 0 -1 0 250 250 250
0.15000000596046448 0 0.05999999865889549 0 -1 0 250 250 250
0.18000000715255737 0 0.03999999910593033 0 -1 0 250 250 250
0.18000000715255737 0 0.05999999865889549 0 -1 0 250 250 250
0.05999999865889549 0 0.05999999865889549 0 -1 0 250 250 250
0.05999999865889549 0 0.07999999821186066 0 -1 0 250 250 250
0.11999999731779099 0 0.05999999865889549 0 -1 0 250 250 250
0.11999999731779099 0 0.07999999821186066 0 -1 0 250 250 250
0.11999999731779099 0 0.05999999865889549 0 -1 0 250 250 250
0.11999999731779099 0 0.07999999821186066 0 -1 0 250 250 250
0.18000000715255737 0 0.05999999865889549 0 -1 0 250 250 250
0.18000000715255737 0 0.07999999821186066 0 -1 0 250 250 250
0 0 0.05999999865889549 0 -1 0 250 250 250
0 0 0.07999999821186066 0 -1 0 250 250 250
0.05999999865889549 0 0.05999999865889549 0 -1 0 250 250 250
0.05999999865889549 0 0.07999999821186066 0 -1 0 250 250 250
0.09000000357627869 0 0.03999999910593033 0 -1 0 250 250 250
0.09000000357627869 0 0.05999999865889549 0 -1 0 250 250 250
0.15000000596046448 0 0.03999999910593033 0 -1 0 250 250 250
0.15000000596046448 0 0.05999999865889549 0 -1 0 250 250 250
0.029999999329447746 0 0.03999999910593033 0 -1 0 250 250 250
0.029999999329447746 0 0.05999999865889549 0 -1 0 250 250 250
0.09000000357627869 0 0.03999999910593033 0 -1 0 250 250 250
0.09000000357627869 0 0.05999999865889549 0 -1 0 250 250 250
0 0 0.03999999910593033 0 -1 0 250 250 250
0 0 0.05999999865889549 0 -1 0 250 250 250
0.029999999329447746 0 0.03999999910593033 0 -1 0 250 250 250
0.029999999329447746 0 0.05999999865889549 0 -1 0 250 250 250
0.15000000596046448 0 1.734723475976807E-18 0 -1 0 250 250 250
0.15000000596046448 0 0.019999999552965164 0 -1 0 250 250 250
0.18000000715255737 0 1.734723475976807E-18 0 -1 0 250 250 250
0.18000000715255737 0 0.019999999552965164 0 -1 0 250 250 250
0.05999999865889549 0 0.019999999552965164 0 -1 0 250 250 250
0.05999999865889549 0 0.03999999910593033 0 -1 0 250 250 250
0.11999999731779099 0 0.019999999552965164 0 -1 0 250 250 250
0.11999999731779099 0 0.03999999910593033 0 -1 0 250 250 250
0.11999999731779099 0 0.019999999552965164 0 -1 0 250 250 250
0.11999999731779099 0 0.03999999910593033 0 -1 0 250 250 250
0.18000000715255737 0 0.019999999552965164 0 -1 0 250 250 250
0.18000000715255737 0 0.03999999910593033 0 -1 0 250 250 250
0 0 0.019999999552965164 0 -1 0 250 250 250
0 0 0.03999999910593033 0 -1 0 250 250 250
0.05999999865889549 0 0.019999999552965164 0 -1 0 250 250 250
0.05999999865889549 0 0.03999999910593033 0 -1 0 250 250 250
0.09000000357627869 0 -3.469446951953614E-18 0 -1 0 250 250 250
0.09000000357627869 0 0.019999999552965164 0 -1 0 250 250 250
0.15000000596046448 0 -6.938893903907228E-18 0 -1 0 250 250 250
0.15000000596046448 0 0.019999999552965164 0 -1 0 250 250 250
0.029999999329447746 0 0 0 -1 0 250 250 250
0.029999999329447746 0 0.019999999552965164 0 -1 0 250 250 250
0.09000000357627869 0 -3.469446951953614E-18 0 -1 0 250 250 250
0.09000000357627869 0 0.019999999552965164 0 -1 0 250 250 250
0 0 0 0 -1 0 250 250 250
0 0 0.019999999552965164 0 -1 0 250 250 250
0.029999999329447746 0 0 0 -1 0 250 250 250
0.029999999329447746 0 0.019999999552965164 0 -1 0 250 250 250
4 3 1 0 2
4 7 5 4 6
4 11 9 8 10
4 15 13 12 14
4 19 17 16 18
4 23 21 20 22
4 27 25 24 26
4 31 29 28 30
4 35 33 32 34
4 39 37 36 38
4 43 41 40 42
4 47 45 44 46
4 51 49 48 50
4 55 53 52 54
4 59 57 56 58
4 63 61 60 62
4 67 65 64 66
4 71 69 68 70
4 75 73 72 74
4 79 77 76 78
4 83 81 80 82
4 87 85 84 86
4 91 89 88 90
4 95 93 92 94
4 99 97 96 98
4 103 101 100 102
4 107 105 104 106
4 111 109 108 110
0 0 0 255 250 250 250 255 0 0 0 255 255 255 255 255 0 0
