ply
format ascii 1.0
comment File exported by Rhinoceros Version 8
element vertex 240
property float x
property float y
property float z
property float nx
property float ny
property float nz
property uchar red
property uchar green
property uchar blue
element face 60
property list uchar uint vertex_indices
element material 1
property uchar ambient_red
property uchar ambient_green
property uchar ambient_blue
property uchar ambient_alpha
property uchar diffuse_red
property uchar diffuse_green
property uchar diffuse_blue
property uchar diffuse_alpha
property uchar emissive_red
property uchar emissive_green
property uchar emissive_blue
property uchar emissive_alpha
property uchar specular_red
property uchar specular_green
property uchar specular_blue
property uchar specular_alpha
property double shine
property double transparency
end_header
0 0 0 0 -1 0 250 250 250
0 0 0.019999999552965164 0 -1 0 250 250 250
0.05999999865889549 0 0 0 -1 0 250 250 250
0.05999999865889549 0 0.019999999552965164 0 -1 0 250 250 250
0.05999999865889549 0 0 0 -1 0 250 250 250
0.05999999865889549 0 0.019999999552965164 0 -1 0 250 250 250
0.11999999731779099 0 0 0 -1 0 250 250 250
0.11999999731779099 0 0.019999999552965164 0 -1 0 250 250 250
0.11999999731779099 0 0 0 -1 0 250 250 250
0.11999999731779099 0 0.019999999552965164 0 -1 0 250 250 250
0.18000000715255737 0 0 0 -1 0 250 250 250
0.18000000715255737 0 0.019999999552965164 0 -1 0 250 250 250
0.18000000715255737 0 0 0 -1 0 250 250 250
0.18000000715255737 0 0.019999999552965164 0 -1 0 250 250 250
0.23999999463558197 0 0 0 -1 0 250 250 250
0.23999999463558197 0 0.019999999552965164 0 -1 0 250 250 250
0.23999999463558197 0 0 0 -1 0 250 250 250
0.23999999463558197 0 0.019999999552965164 0 -1 0 250 250 250
0.30000001192092896 0 0 0 -1 0 250 250 250
0.30000001192092896 0 0.019999999552965164 0 -1 0 250 250 250
0.30000001192092896 0 0 0 -1 0 250 250 250
0.30000001192092896 0 0.019999999552965164 0 -1 0 250 250 250
0.36000001430511475 0 0 0 -1 0 250 250 250
0.36000001430511475 0 0.019999999552965164 0 -1 0 250 250 250
0.36000001430511475 0 0 0 -1 0 250 250 250
0.36000001430511475 0 0.019999999552965164 0 -1 0 250 250 250
0.41999998688697815 0 0 0 -1 0 250 250 250
0.41999998688697815 0 0.019999999552965164 0 -1 0 250 250 250
0.029999999329447746 0 0.019999999552965164 0 -1 0 250 250 250
0.029999999329447746 0 0.03999999910593033 0 -1 0 250 250 250
0.09000000357627869 0 0.019999999552965164 0 -1 0 250 250 250
0.09000000357627869 0 0.03999999910593033 0 -1 0 250 250 250
0.09000000357627869 0 0.019999999552965164 0 -1 0 250 250 250
0.09000000357627869 0 0.03999999910593033 0 -1 0 250 250 250
0.15000000596046448 0 0.019999999552965164 0 -1 0 250 250 250
0.15000000596046448 0 0.03999999910593033 0 -1 0 250 250 250
0.15000000596046448 0 0.019999999552965164 0 -1 0 250 250 250
0.15000000596046448 0 0.03999999910593033 0 -1 0 250 250 250
0.20999999344348907 0 0.019999999552965164 0 -1 0 250 250 250
0.20999999344348907 0 0.03999999910593033 0 -1 0 250 250 250
0.20999999344348907 0 0.019999999552965164 0 -1 0 250 250 250
0.20999999344348907 0 0.03999999910593033 0 -1 0 250 250 250
0.27000001072883606 0 0.019999999552965164 0 -1 0 250 250 250
0.27000001072883606 0 0.03999999910593033 0 -1 0 250 250 250
0.27000001072883606 0 0.019999999552965164 0 -1 0 250 250 250
0.27000001072883606 0 0.03999999910593033 0 -1 0 250 250 250
0.33000001311302185 0 0.019999999552965164 0 -1 0 250 250 250
0.33000001311302185 0 0.03999999910593033 0 -1 0 250 250 250
0.33000001311302185 0 0.019999999552965164 0 -1 0 250 250 250
0.33000001311302185 0 0.03999999910593033 0 -1 0 250 250 250
0.38999998569488525 0 0.019999999552965164 0 -1 0 250 250 250
0.38999998569488525 0 0.03999999910593033 0 -1 0 250 250 250
0.38999998569488525 0 0.019999999552965164 0 -1 0 250 250 250
0.38999998569488525 0 0.03999999910593033 0 -1 0 250 250 250
0.41999998688697815 0 0.019999999552965164 0 -1 0 250 250 250
0.41999998688697815 0 0.03999999910593033 0 -1 0 250 250 250
0 0 0.019999999552965164 0 -1 0 250 250 250
0 0 0.03999999910593033 0 -1 0 250 250 250
0.029999999329447746 0 0.019999999552965164 0 -1 0 250 250 250
0.029999999329447746 0 0.03999999910593033 0 -1 0 250 250 250
-5.551115123125783E-17 0 0.03999999910593033 0 -1 0 250 250 250
-5.551115123125783E-17 0 0.05999999865889549 0 -1 0 250 250 250
0.05999999865889549 0 0.03999999910593033 0 -1 0 250 250 250
0.05999999865889549 0 0.05999999865889549 0 -1 0 250 250 250
0.05999999865889549 0 0.03999999910593033 0 -1 0 250 250 250
0.05999999865889549 0 0.05999999865889549 0 -1 0 250 250 250
0.11999999731779099 0 0.03999999910593033 0 -1 0 250 250 250
0.11999999731779099 0 0.05999999865889549 0 -1 0 250 250 250
0.11999999731779099 0 0.03999999910593033 0 -1 0 250 250 250
0.11999999731779099 0 0.05999999865889549 0 -1 0 250 250 250
0.18000000715255737 0 0.03999999910593033 0 -1 0 250 250 250
0.18000000715255737 0 0.05999999865889549 0 -1 0 250 250 250
0.18000000715255737 0 0.03999999910593033 0 -1 0 250 250 250
0.18000000715255737 0 0.05999999865889549 0 -1 0 250 250 250
0.23999999463558197 0 0.03999999910593033 0 -1 0 250 250 250
0.23999999463558197 0 0.05999999865889549 0 -1 0 250 250 250
0.23999999463558197 0 0.03999999910593033 0 -1 0 250 250 250
0.23999999463558197 0 0.05999999865889549 0 -1 0 250 250 250
0.30000001192092896 0 0.03999999910593033 0 -1 0 250 250 250
0.30000001192092896 0 0.05999999865889549 0 -1 0 250 250 250
0.30000001192092896 0 0.03999999910593033 0 -1 0 250 250 250
0.30000001192092896 0 0.05999999865889549 0 -1 0 250 250 250
0.36000001430511475 0 0.03999999910593033 0 -1 0 250 250 250
0.36000001430511475 0 0.05999999865889549 0 -1 0 250 250 250
0.36000001430511475 0 0.03999999910593033 0 -1 0 250 250 250
0.36000001430511475 0 0.05999999865889549 0 -1 0 250 250 250
0.41999998688697815 0 0.03999999910593033 0 -1 0 250 250 250
0.41999998688697815 0 0.05999999865889549 0 -1 0 250 250 250
0.029999999329447746 0 0.05999999865889549 0 -1 0 250 250 250
0.029999999329447746 0 0.07999999821186066 0 -1 0 250 250 250
0.09000000357627869 0 0.05999999865889549 0 -1 0 250 250 250
0.09000000357627869 0 0.07999999821186066 0 -1 0 250 250 250
0.09000000357627869 0 0.05999999865889549 0 -1 0 250 250 250
0.09000000357627869 0 0.07999999821186066 0 -1 0 250 250 250
0.15000000596046448 0 0.05999999865889549 0 -1 0 250 250 250
0.15000000596046448 0 0.07999999821186066 0 -1 0 250 250 250
0.15000000596046448 0 0.05999999865889549 0 -1 0 250 250 250
0.15000000596046448 0 0.07999999821186066 0 -1 0 250 250 250
0.20999999344348907 0 0.05999999865889549 0 -1 0 250 250 250
0.20999999344348907 0 0.07999999821186066 0 -1 0 250 250 250
0.20999999344348907 0 0.05999999865889549 0 -1 0 250 250 250
0.20999999344348907 0 0.07999999821186066 0 -1 0 250 250 250
0.27000001072883606 0 0.05999999865889549 0 -1 0 250 250 250
0.27000001072883606 0 0.07999999821186066 0 -1 0 250 250 250
0.27000001072883606 0 0.05999999865889549 0 -1 0 250 250 250
0.27000001072883606 0 0.07999999821186066 0 -1 0 250 250 250
0.33000001311302185 0 0.05999999865889549 0 -1 0 250 250 250
0.33000001311302185 0 0.07999999821186066 0 -1 0 250 250 250
0.33000001311302185 0 0.05999999865889549 0 -1 0 250 250 250
0.33000001311302185 0 0.07999999821186066 0 -1 0 250 250 250
0.38999998569488525 0 0.05999999865889549 0 -1 0 250 250 250
0.38999998569488525 0 0.07999999821186066 0 -1 0 250 250 250
0.38999998569488525 0 0.05999999865889549 0 -1 0 250 250 250
0.38999998569488525 0 0.07999999821186066 0 -1 0 250 250 250
0.41999998688697815 0 0.05999999865889549 0 -1 0 250 250 250
0.41999998688697815 0 0.07999999821186066 0 -1 0 250 250 250
-5.551115123125783E-17 0 0.05999999865889549 0 -1 0 250 250 250
-5.551115123125783E-17 0 0.07999999821186066 0 -1 0 250 250 250
0.029999999329447746 0 0.05999999865889549 0 -1 0 250 250 250
0.029999999329447746 0 0.07999999821186066 0 -1 0 250 250 250
-1.1102230246251565E-16 0 0.07999999821186066 0 -1 0 250 250 250
-1.1102230246251565E-16 0 0.10000000149011612 0 -1 0 250 250 250
0.05999999865889549 0 0.07999999821186066 0 -1 0 250 250 250
0.05999999865889549 0 0.10000000149011612 0 -1 0 250 250 250
0.05999999865889549 0 0.07999999821186066 0 -1 0 250 250 250
0.05999999865889549 0 0.10000000149011612 0 -1 0 250 250 250
0.11999999731779099 0 0.07999999821186066 0 -1 0 250 250 250
0.11999999731779099 0 0.10000000149011612 0 -1 0 250 250 250
0.11999999731779099 0 0.07999999821186066 0 -1 0 250 250 250
0.11999999731779099 0 0.10000000149011612 0 -1 0 250 250 250
0.18000000715255737 0 0.07999999821186066 0 -1 0 250 250 250
0.18000000715255737 0 0.10000000149011612 0 -1 0 250 250 250
0.18000000715255737 0 0.07999999821186066 0 -1 0 250 250 250
0.18000000715255737 0 0.10000000149011612 0 -1 0 250 250 250
0.23999999463558197 0 0.07999999821186066 0 -1 0 250 250 250
0.23999999463558197 0 0.10000000149011612 0 -1 0 250 250 250
0.23999999463558197 0 0.07999999821186066 0 -1 0 250 250 250
0.23999999463558197 0 0.10000000149011612 0 -1 0 250 250 250
0.30000001192092896 0 0.07999999821186066 0 -1 0 250 250 250
0.30000001192092896 0 0.10000000149011612 0 -1 0 250 250 250
0.30000001192092896 0 0.07999999821186066 0 -1 0 250 250 250
0.30000001192092896 0 0.10000000149011612 0 -1 0 250 250 250
0.36000001430511475 0 0.07999999821186066 0 -1 0 250 250 250
0.36000001430511475 0 0.10000000149011612 0 -1 0 250 250 250
0.36000001430511475 0 0.07999999821186066 0 -1 0 250 250 250
0.36000001430511475 0 0.10000000149011612 0 -1 0 250 250 250
0.41999998688697815 0 0.07999999821186066 0 -1 0 250 250 250
0.41999998688697815 0 0.10000000149011612 0 -1 0 250 250 250
0.029999999329447746 0 0.10000000149011612 0 -1 0 250 250 250
0.029999999329447746 0 0.11999999731779099 0 -1 0 250 250 250
0.09000000357627869 0 0.10000000149011612 0 -1 0 250 250 250
0.09000000357627869 0 0.11999999731779099 0 -1 0 250 250 250
0.09000000357627869 0 0.10000000149011612 0 -1 0 250 250 250
0.09000000357627869 0 0.11999999731779099 0 -1 0 250 250 250
0.15000000596046448 0 0.10000000149011612 0 -1 0 250 250 250
0.15000000596046448 0 0.11999999731779099 0 -1 0 250 250 250
0.15000000596046448 0 0.10000000149011612 0 -1 0 250 250 250
0.15000000596046448 0 0.11999999731779099 0 -1 0 250 250 250
0.20999999344348907 0 0.10000000149011612 0 -1 0 250 250 250
0.20999999344348907 0 0.11999999731779099 0 -1 0 250 250 250
0.20999999344348907 0 0.10000000149011612 0 -1 0 250 250 250
0.20999999344348907 0 0.11999999731779099 0 -1 0 250 250 250
0.27000001072883606 0 0.10000000149011612 0 -1 0 250 250 250
0.27000001072883606 0 0.11999999731779099 0 -1 0 250 250 250
0.27000001072883606 0 0.10000000149011612 0 -1 0 250 250 250
0.27000001072883606 0 0.11999999731779099 0 -1 0 250 250 250
0.33000001311302185 0 0.10000000149011612 0 -1 0 250 250 250
0.33000001311302185 0 0.11999999731779099 0 -1 0 250 250 250
0.33000001311302185 0 0.10000000149011612 0 -1 0 250 250 250
0.33000001311302185 0 0.11999999731779099 0 -1 0 250 250 250
0.38999998569488525 0 0.10000000149011612 0 -1 0 250 250 250
0.38999998569488525 0 0.11999999731779099 0 -1 0 250 250 250
0.38999998569488525 0 0.10000000149011612 0 -1 0 250 250 250
0.38999998569488525 0 0.11999999731779099 0 -1 0 250 250 250
0.41999998688697815 0 0.10000000149011612 0 -1 0 250 250 250
0.41999998688697815 0 0.11999999731779099 0 -1 0 250 250 250
-1.1102230246251565E-16 0 0.10000000149011612 0 -1 0 250 250 250
-1.1102230246251565E-16 0 0.11999999731779099 0 -1 0 250 250 250
0.029999999329447746 0 0.10000000149011612 0 -1 0 250 250 250
0.029999999329447746 0 0.11999999731779099 0 -1 0 250 250 250
-1.6653345369377348E-16 0 0.11999999731779099 0 -1 0 250 250 250
-1.6653345369377348E-16 0 0.14000000059604645 0 -1 0 250 250 250
0.05999999865889549 0 0.11999999731779099 0 -1 0 250 250 250
0.05999999865889549 0 0.14000000059604645 0 -1 0 250 250 250
0.05999999865889549 0 0.11999999731779099 0 -1 0 250 250 250
0.05999999865889549 0 0.14000000059604645 0 -1 0 250 250 250
0.11999999731779099 0 0.11999999731779099 0 -1 0 250 250 250
0.11999999731779099 0 0.14000000059604645 0 -1 0 250 250 250
0.11999999731779099 0 0.11999999731779099 0 -1 0 250 250 250
0.11999999731779099 0 0.14000000059604645 0 -1 0 250 250 250
0.18000000715255737 0 0.11999999731779099 0 -1 0 250 250 250
0.18000000715255737 0 0.14000000059604645 0 -1 0 250 250 250
0.18000000715255737 0 0.11999999731779099 0 -1 0 250 250 250
0.18000000715255737 0 0.14000000059604645 0 -1 0 250 250 250
0.23999999463558197 0 0.11999999731779099 0 -1 0 250 250 250
0.23999999463558197 0 0.14000000059604645 0 -1 0 250 250 250
0.23999999463558197 0 0.11999999731779099 0 -1 0 250 250 250
0.23999999463558197 0 0.14000000059604645 0 -1 0 250 250 250
0.30000001192092896 0 0.11999999731779099 0 -1 0 250 250 250
0.30000001192092896 0 0.14000000059604645 0 -1 0 250 250 250
0.30000001192092896 0 0.11999999731779099 0 -1 0 250 250 250
0.30000001192092896 0 0.14000000059604645 0 -1 0 250 250 250
0.36000001430511475 0 0.11999999731779099 0 -1 0 250 250 250
0.36000001430511475 0 0.14000000059604645 0 -1 0 250 250 250
0.36000001430511475 0 0.11999999731779099 0 -1 0 250 250 250
0.36000001430511475 0 0.14000000059604645 0 -1 0 250 250 250
0.41999998688697815 0 0.11999999731779099 0 -1 0 250 250 250
0.41999998688697815 0 0.14000000059604645 0 -1 0 250 250 250
0.029999999329447746 0 0.14000000059604645 0 -1 0 250 250 250
0.029999999329447746 0 0.1599999964237213 0 -1 0 250 250 250
0.09000000357627869 0 0.14000000059604645 0 -1 0 250 250 250
0.09000000357627869 0 0.1599999964237213 0 -1 0 250 250 250
0.09000000357627869 0 0.14000000059604645 0 -1 0 250 250 250
0.09000000357627869 0 0.1599999964237213 0 -1 0 250 250 250
0.15000000596046448 0 0.14000000059604645 0 -1 0 250 250 250
0.15000000596046448 0 0.1599999964237213 0 -1 0 250 250 250
0.15000000596046448 0 0.14000000059604645 0 -1 0 250 250 250
0.15000000596046448 0 0.1599999964237213 0 -1 0 250 250 250
0.20999999344348907 0 0.14000000059604645 0 -1 0 250 250 250
0.20999999344348907 0 0.1599999964237213 0 -1 0 250 250 250
0.20999999344348907 0 0.14000000059604645 0 -1 0 250 250 250
0.20999999344348907 0 0.1599999964237213 0 -1 0 250 250 250
0.27000001072883606 0 0.14000000059604645 0 -1 0 250 250 250
0.27000001072883606 0 0.1599999964237213 0 -1 0 250 250 250
0.27000001072883606 0 0.14000000059604645 0 -1 0 250 250 250
0.27000001072883606 0 0.1599999964237213 0 -1 0 250 250 250
0.33000001311302185 0 0.14000000059604645 0 -1 0 250 250 250
0.33000001311302185 0 0.1599999964237213 0 -1 0 250 250 250
0.33000001311302185 0 0.14000000059604645 0 -1 0 250 250 250
0.33000001311302185 0 0.1599999964237213 0 -1 0 250 250 250
0.38999998569488525 0 0.14000000059604645 0 -1 0 250 250 250
0.38999998569488525 0 0.1599999964237213 0 -1 0 250 250 250
0.38999998569488525 0 0.14000000059604645 0 -1 0 250 250 250
0.38999998569488525 0 0.1599999964237213 0 -1 0 250 250 250
0.41999998688697815 0 0.14000000059604645 0 -1 0 250 250 250
0.41999998688697815 0 0.1599999964237213 0 -1 0 250 250 250
-1.6653345369377348E-16 0 0.14000000059604645 0 -1 0 250 250 250
-1.6653345369377348E-16 0 0.1599999964237213 0 -1 0 250 250 250
0.029999999329447746 0 0.14000000059604645 0 -1 0 250 250 250
0.029999999329447746 0 0.1599999964237213 0 -1 0 250 250 250
4 3 1 0 2
4 7 5 4 6
4 11 9 8 10
4 15 13 12 14
4 19 17 16 18
4 23 21 20 22
4 27 25 24 26
4 31 29 28 30
4 35 33 32 34
4 39 37 36 38
4 43 41 40 42
4 47 45 44 46
4 51 49 48 50
4 55 53 52 54
4 59 57 56 58
4 63 61 60 62
4 67 65 64 66
4 71 69 68 70
4 75 73 72 74
4 79 77 76 78
4 83 81 80 82
4 87 85 84 86
4 91 89 88 90
4 95 93 92 94
4 99 97 96 98
4 103 101 100 102
4 107 105 104 106
4 111 109 108 110
4 115 113 112 114
4 119 117 116 118
4 123 121 120 122
4 127 125 124 126
4 131 129 128 130
4 135 133 132 134
4 139 137 136 138
4 143 141 140 142
4 147 145 144 146
4 151 149 148 150
4 155 153 152 154
4 159 157 156 158
4 163 161 160 162
4 167 165 164 166
4 171 169 168 170
4 175 173 172 174
4 179 177 176 178
4 183 181 180 182
4 187 185 184 186
4 191 189 188 190
4 195 193 192 194
4 199 197 196 198
4 203 201 200 202
4 207 205 204 206
4 211 209 208 210
4 215 213 212 214
4 219 217 216 218
4 223 221 220 222
4 227 225 224 226
4 231 229 228 230
4 235 233 232 234
4 239 237 236 238
0 0 0 255 250 250 250 255 0 0 0 255 255 255 255 255 0 0
