ply
format ascii 1.0
comment File exported by Rhinoceros Version 8
element vertex 532
property float x
property float y
property float z
property float nx
property float ny
property float nz
property uchar red
property uchar green
property uchar blue
element face 133
property list uchar uint vertex_indices
element material 1
property uchar ambient_red
property uchar ambient_green
property uchar ambient_blue
property uchar ambient_alpha
property uchar diffuse_red
property uchar diffuse_green
property uchar diffuse_blue
property uchar diffuse_alpha
property uchar emissive_red
property uchar emissive_green
property uchar emissive_blue
property uchar emissive_alpha
property uchar specular_red
property uchar specular_green
property uchar specular_blue
property uchar specular_alpha
property double shine
property double transparency
end_header
0 0.25999999046325684 0 0 0 1 250 250 250
0 0.2800000011920929 0 0 0 1 250 250 250
0.029999999329447746 0.25999999046325684 0 0 0 1 250 250 250
0.029999999329447746 0.2800000011920929 0 0 0 1 250 250 250
0.5099999904632568 0.25999999046325684 0 0 0 1 250 250 250
0.5099999904632568 0.2800000011920929 0 0 0 1 250 250 250
0.5400000214576721 0.25999999046325684 0 0 0 1 250 250 250
0.5400000214576721 0.2800000011920929 0 0 0 1 250 250 250
0.44999998807907104 0.25999999046325684 0 0 0 1 250 250 250
0.44999998807907104 0.2800000011920929 0 0 0 1 250 250 250
0.5099999904632568 0.25999999046325684 0 0 0 1 250 250 250
0.5099999904632568 0.2800000011920929 0 0 0 1 250 250 250
0.38999998569488525 0.25999999046325684 0 0 0 1 250 250 250
0.38999998569488525 0.2800000011920929 0 0 0 1 250 250 250
0.44999998807907104 0.25999999046325684 0 0 0 1 250 250 250
0.44999998807907104 0.2800000011920929 0 0 0 1 250 250 250
0.33000001311302185 0.25999999046325684 0 0 0 1 250 250 250
0.33000001311302185 0.2800000011920929 0 0 0 1 250 250 250
0.38999998569488525 0.25999999046325684 0 0 0 1 250 250 250
0.38999998569488525 0.2800000011920929 0 0 0 1 250 250 250
0.27000001072883606 0.25999999046325684 0 0 0 1 250 250 250
0.27000001072883606 0.2800000011920929 0 0 0 1 250 250 250
0.33000001311302185 0.25999999046325684 0 0 0 1 250 250 250
0.33000001311302185 0.2800000011920929 0 0 0 1 250 250 250
0.20999999344348907 0.25999999046325684 0 0 0 1 250 250 250
0.20999999344348907 0.2800000011920929 0 0 0 1 250 250 250
0.27000001072883606 0.25999999046325684 0 0 0 1 250 250 250
0.27000001072883606 0.2800000011920929 0 0 0 1 250 250 250
0.15000000596046448 0.25999999046325684 0 0 0 1 250 250 250
0.15000000596046448 0.2800000011920929 0 0 0 1 250 250 250
0.20999999344348907 0.25999999046325684 0 0 0 1 250 250 250
0.20999999344348907 0.2800000011920929 0 0 0 1 250 250 250
0.09000000357627869 0.25999999046325684 0 0 0 1 250 250 250
0.09000000357627869 0.2800000011920929 0 0 0 1 250 250 250
0.15000000596046448 0.25999999046325684 0 0 0 1 250 250 250
0.15000000596046448 0.2800000011920929 0 0 0 1 250 250 250
0.029999999329447746 0.25999999046325684 0 0 0 1 250 250 250
0.029999999329447746 0.2800000011920929 0 0 0 1 250 250 250
0.09000000357627869 0.25999999046325684 0 0 0 1 250 250 250
0.09000000357627869 0.2800000011920929 0 0 0 1 250 250 250
0.47999998927116394 0.23999999463558197 0 0 0 1 250 250 250
0.47999998927116394 0.25999999046325684 0 0 0 1 250 250 250
0.5400000214576721 0.23999999463558197 0 0 0 1 250 250 250
0.5400000214576721 0.25999999046325684 0 0 0 1 250 250 250
0.41999998688697815 0.23999999463558197 0 0 0 1 250 250 250
0.41999998688697815 0.25999999046325684 0 0 0 1 250 250 250
0.47999998927116394 0.23999999463558197 0 0 0 1 250 250 250
0.47999998927116394 0.25999999046325684 0 0 0 1 250 250 250
0.36000001430511475 0.23999999463558197 0 0 0 1 250 250 250
0.36000001430511475 0.25999999046325684 0 0 0 1 250 250 250
0.41999998688697815 0.23999999463558197 0 0 0 1 250 250 250
0.41999998688697815 0.25999999046325684 0 0 0 1 250 250 250
0.30000001192092896 0.23999999463558197 0 0 0 1 250 250 250
0.30000001192092896 0.25999999046325684 0 0 0 1 250 250 250
0.36000001430511475 0.23999999463558197 0 0 0 1 250 250 250
0.36000001430511475 0.25999999046325684 0 0 0 1 250 250 250
0.23999999463558197 0.23999999463558197 0 0 0 1 250 250 250
0.23999999463558197 0.25999999046325684 0 0 0 1 250 250 250
0.30000001192092896 0.23999999463558197 0 0 0 1 250 250 250
0.30000001192092896 0.25999999046325684 0 0 0 1 250 250 250
0.18000000715255737 0.23999999463558197 0 0 0 1 250 250 250
0.18000000715255737 0.25999999046325684 0 0 0 1 250 250 250
0.23999999463558197 0.23999999463558197 0 0 0 1 250 250 250
0.23999999463558197 0.25999999046325684 0 0 0 1 250 250 250
0.11999999731779099 0.23999999463558197 0 0 0 1 250 250 250
0.11999999731779099 0.25999999046325684 0 0 0 1 250 250 250
0.18000000715255737 0.23999999463558197 0 0 0 1 250 250 250
0.18000000715255737 0.25999999046325684 0 0 0 1 250 250 250
0.05999999865889549 0.23999999463558197 0 0 0 1 250 250 250
0.05999999865889549 0.25999999046325684 0 0 0 1 250 250 250
0.11999999731779099 0.23999999463558197 0 0 0 1 250 250 250
0.11999999731779099 0.25999999046325684 0 0 0 1 250 250 250
0 0.23999999463558197 0 0 0 1 250 250 250
0 0.25999999046325684 0 0 0 1 250 250 250
0.05999999865889549 0.23999999463558197 0 0 0 1 250 250 250
0.05999999865889549 0.25999999046325684 0 0 0 1 250 250 250
0 0.2199999988079071 0 0 0 1 250 250 250
0 0.23999999463558197 0 0 0 1 250 250 250
0.029999999329447746 0.2199999988079071 0 0 0 1 250 250 250
0.029999999329447746 0.23999999463558197 0 0 0 1 250 250 250
0.5099999904632568 0.2199999988079071 0 0 0 1 250 250 250
0.5099999904632568 0.23999999463558197 0 0 0 1 250 250 250
0.5400000214576721 0.2199999988079071 0 0 0 1 250 250 250
0.5400000214576721 0.23999999463558197 0 0 0 1 250 250 250
0.44999998807907104 0.2199999988079071 0 0 0 1 250 250 250
0.44999998807907104 0.23999999463558197 0 0 0 1 250 250 250
0.5099999904632568 0.2199999988079071 0 0 0 1 250 250 250
0.5099999904632568 0.23999999463558197 0 0 0 1 250 250 250
0.38999998569488525 0.2199999988079071 0 0 0 1 250 250 250
0.38999998569488525 0.23999999463558197 0 0 0 1 250 250 250
0.44999998807907104 0.2199999988079071 0 0 0 1 250 250 250
0.44999998807907104 0.23999999463558197 0 0 0 1 250 250 250
0.33000001311302185 0.2199999988079071 0 0 0 1 250 250 250
0.33000001311302185 0.23999999463558197 0 0 0 1 250 250 250
0.38999998569488525 0.2199999988079071 0 0 0 1 250 250 250
0.38999998569488525 0.23999999463558197 0 0 0 1 250 250 250
0.27000001072883606 0.2199999988079071 0 0 0 1 250 250 250
0.27000001072883606 0.23999999463558197 0 0 0 1 250 250 250
0.33000001311302185 0.2199999988079071 0 0 0 1 250 250 250
0.33000001311302185 0.23999999463558197 0 0 0 1 250 250 250
0.20999999344348907 0.2199999988079071 0 0 0 1 250 250 250
0.20999999344348907 0.23999999463558197 0 0 0 1 250 250 250
0.27000001072883606 0.2199999988079071 0 0 0 1 250 250 250
0.27000001072883606 0.23999999463558197 0 0 0 1 250 250 250
0.15000000596046448 0.2199999988079071 0 0 0 1 250 250 250
0.15000000596046448 0.23999999463558197 0 0 0 1 250 250 250
0.20999999344348907 0.2199999988079071 0 0 0 1 250 250 250
0.20999999344348907 0.23999999463558197 0 0 0 1 250 250 250
0.09000000357627869 0.2199999988079071 0 0 0 1 250 250 250
0.09000000357627869 0.23999999463558197 0 0 0 1 250 250 250
0.15000000596046448 0.2199999988079071 0 0 0 1 250 250 250
0.15000000596046448 0.23999999463558197 0 0 0 1 250 250 250
0.029999999329447746 0.2199999988079071 0 0 0 1 250 250 250
0.029999999329447746 0.23999999463558197 0 0 0 1 250 250 250
0.09000000357627869 0.2199999988079071 0 0 0 1 250 250 250
0.09000000357627869 0.23999999463558197 0 0 0 1 250 250 250
0.47999998927116394 0.20000000298023224 0 0 0 1 250 250 250
0.47999998927116394 0.2199999988079071 0 0 0 1 250 250 250
0.5400000214576721 0.20000000298023224 0 0 0 1 250 250 250
0.5400000214576721 0.2199999988079071 0 0 0 1 250 250 250
0.41999998688697815 0.20000000298023224 0 0 0 1 250 250 250
0.41999998688697815 0.2199999988079071 0 0 0 1 250 250 250
0.47999998927116394 0.20000000298023224 0 0 0 1 250 250 250
0.47999998927116394 0.2199999988079071 0 0 0 1 250 250 250
0.36000001430511475 0.20000000298023224 0 0 0 1 250 250 250
0.36000001430511475 0.2199999988079071 0 0 0 1 250 250 250
0.41999998688697815 0.20000000298023224 0 0 0 1 250 250 250
0.41999998688697815 0.2199999988079071 0 0 0 1 250 250 250
0.30000001192092896 0.20000000298023224 0 0 0 1 250 250 250
0.30000001192092896 0.2199999988079071 0 0 0 1 250 250 250
0.36000001430511475 0.20000000298023224 0 0 0 1 250 250 250
0.36000001430511475 0.2199999988079071 0 0 0 1 250 250 250
0.23999999463558197 0.20000000298023224 0 0 0 1 250 250 250
0.23999999463558197 0.2199999988079071 0 0 0 1 250 250 250
0.30000001192092896 0.20000000298023224 0 0 0 1 250 250 250
0.30000001192092896 0.2199999988079071 0 0 0 1 250 250 250
0.18000000715255737 0.20000000298023224 0 0 0 1 250 250 250
0.18000000715255737 0.2199999988079071 0 0 0 1 250 250 250
0.23999999463558197 0.20000000298023224 0 0 0 1 250 250 250
0.23999999463558197 0.2199999988079071 0 0 0 1 250 250 250
0.11999999731779099 0.20000000298023224 0 0 0 1 250 250 250
0.11999999731779099 0.2199999988079071 0 0 0 1 250 250 250
0.18000000715255737 0.20000000298023224 0 0 0 1 250 250 250
0.18000000715255737 0.2199999988079071 0 0 0 1 250 250 250
0.05999999865889549 0.20000000298023224 0 0 0 1 250 250 250
0.05999999865889549 0.2199999988079071 0 0 0 1 250 250 250
0.11999999731779099 0.20000000298023224 0 0 0 1 250 250 250
0.11999999731779099 0.2199999988079071 0 0 0 1 250 250 250
0 0.20000000298023224 0 0 0 1 250 250 250
0 0.2199999988079071 0 0 0 1 250 250 250
0.05999999865889549 0.20000000298023224 0 0 0 1 250 250 250
0.05999999865889549 0.2199999988079071 0 0 0 1 250 250 250
0 0.18000000715255737 0 0 0 1 250 250 250
0 0.20000000298023224 0 0 0 1 250 250 250
0.029999999329447746 0.18000000715255737 0 0 0 1 250 250 250
0.029999999329447746 0.20000000298023224 0 0 0 1 250 250 250
0.5099999904632568 0.18000000715255737 0 0 0 1 250 250 250
0.5099999904632568 0.20000000298023224 0 0 0 1 250 250 250
0.5400000214576721 0.18000000715255737 0 0 0 1 250 250 250
0.5400000214576721 0.20000000298023224 0 0 0 1 250 250 250
0.44999998807907104 0.18000000715255737 0 0 0 1 250 250 250
0.44999998807907104 0.20000000298023224 0 0 0 1 250 250 250
0.5099999904632568 0.18000000715255737 0 0 0 1 250 250 250
0.5099999904632568 0.20000000298023224 0 0 0 1 250 250 250
0.38999998569488525 0.18000000715255737 0 0 0 1 250 250 250
0.38999998569488525 0.20000000298023224 0 0 0 1 250 250 250
0.44999998807907104 0.18000000715255737 0 0 0 1 250 250 250
0.44999998807907104 0.20000000298023224 0 0 0 1 250 250 250
0.33000001311302185 0.18000000715255737 0 0 0 1 250 250 250
0.33000001311302185 0.20000000298023224 0 0 0 1 250 250 250
0.38999998569488525 0.18000000715255737 0 0 0 1 250 250 250
0.38999998569488525 0.20000000298023224 0 0 0 1 250 250 250
0.27000001072883606 0.18000000715255737 0 0 0 1 250 250 250
0.27000001072883606 0.20000000298023224 0 0 0 1 250 250 250
0.33000001311302185 0.18000000715255737 0 0 0 1 250 250 250
0.33000001311302185 0.20000000298023224 0 0 0 1 250 250 250
0.20999999344348907 0.18000000715255737 0 0 0 1 250 250 250
0.20999999344348907 0.20000000298023224 0 0 0 1 250 250 250
0.27000001072883606 0.18000000715255737 0 0 0 1 250 250 250
0.27000001072883606 0.20000000298023224 0 0 0 1 250 250 250
0.15000000596046448 0.18000000715255737 0 0 0 1 250 250 250
0.15000000596046448 0.20000000298023224 0 0 0 1 250 250 250
0.20999999344348907 0.18000000715255737 0 0 0 1 250 250 250
0.20999999344348907 0.20000000298023224 0 0 0 1 250 250 250
0.09000000357627869 0.18000000715255737 0 0 0 1 250 250 250
0.09000000357627869 0.20000000298023224 0 0 0 1 250 250 250
0.15000000596046448 0.18000000715255737 0 0 0 1 250 250 250
0.15000000596046448 0.20000000298023224 0 0 0 1 250 250 250
0.029999999329447746 0.18000000715255737 0 0 0 1 250 250 250
0.029999999329447746 0.20000000298023224 0 0 0 1 250 250 250
0.09000000357627869 0.18000000715255737 0 0 0 1 250 250 250
0.09000000357627869 0.20000000298023224 0 0 0 1 250 250 250
0.47999998927116394 0.1599999964237213 0 0 0 1 250 250 250
0.47999998927116394 0.18000000715255737 0 0 0 1 250 250 250
0.5400000214576721 0.1599999964237213 0 0 0 1 250 250 250
0.5400000214576721 0.18000000715255737 0 0 0 1 250 250 250
0.41999998688697815 0.1599999964237213 0 0 0 1 250 250 250
0.41999998688697815 0.18000000715255737 0 0 0 1 250 250 250
0.47999998927116394 0.1599999964237213 0 0 0 1 250 250 250
0.47999998927116394 0.18000000715255737 0 0 0 1 250 250 250
0.36000001430511475 0.1599999964237213 0 0 0 1 250 250 250
0.36000001430511475 0.18000000715255737 0 0 0 1 250 250 250
0.41999998688697815 0.1599999964237213 0 0 0 1 250 250 250
0.41999998688697815 0.18000000715255737 0 0 0 1 250 250 250
0.30000001192092896 0.1599999964237213 0 0 0 1 250 250 250
0.30000001192092896 0.18000000715255737 0 0 0 1 250 250 250
0.36000001430511475 0.1599999964237213 0 0 0 1 250 250 250
0.36000001430511475 0.18000000715255737 0 0 0 1 250 250 250
0.23999999463558197 0.1599999964237213 0 0 0 1 250 250 250
0.23999999463558197 0.18000000715255737 0 0 0 1 250 250 250
0.30000001192092896 0.1599999964237213 0 0 0 1 250 250 250
0.30000001192092896 0.18000000715255737 0 0 0 1 250 250 250
0.18000000715255737 0.1599999964237213 0 0 0 1 250 250 250
0.18000000715255737 0.18000000715255737 0 0 0 1 250 250 250
0.23999999463558197 0.1599999964237213 0 0 0 1 250 250 250
0.23999999463558197 0.18000000715255737 0 0 0 1 250 250 250
0.11999999731779099 0.1599999964237213 0 0 0 1 250 250 250
0.11999999731779099 0.18000000715255737 0 0 0 1 250 250 250
0.18000000715255737 0.1599999964237213 0 0 0 1 250 250 250
0.18000000715255737 0.18000000715255737 0 0 0 1 250 250 250
0.05999999865889549 0.1599999964237213 0 0 0 1 250 250 250
0.05999999865889549 0.18000000715255737 0 0 0 1 250 250 250
0.11999999731779099 0.1599999964237213 0 0 0 1 250 250 250
0.11999999731779099 0.18000000715255737 0 0 0 1 250 250 250
0 0.1599999964237213 0 0 0 1 250 250 250
0 0.18000000715255737 0 0 0 1 250 250 250
0.05999999865889549 0.1599999964237213 0 0 0 1 250 250 250
0.05999999865889549 0.18000000715255737 0 0 0 1 250 250 250
0 0.14000000059604645 0 0 0 1 250 250 250
0 0.1599999964237213 0 0 0 1 250 250 250
0.029999999329447746 0.14000000059604645 0 0 0 1 250 250 250
0.029999999329447746 0.1599999964237213 0 0 0 1 250 250 250
0.5099999904632568 0.14000000059604645 0 0 0 1 250 250 250
0.5099999904632568 0.1599999964237213 0 0 0 1 250 250 250
0.5400000214576721 0.14000000059604645 0 0 0 1 250 250 250
0.5400000214576721 0.1599999964237213 0 0 0 1 250 250 250
0.44999998807907104 0.14000000059604645 0 0 0 1 250 250 250
0.44999998807907104 0.1599999964237213 0 0 0 1 250 250 250
0.5099999904632568 0.14000000059604645 0 0 0 1 250 250 250
0.5099999904632568 0.1599999964237213 0 0 0 1 250 250 250
0.38999998569488525 0.14000000059604645 0 0 0 1 250 250 250
0.38999998569488525 0.1599999964237213 0 0 0 1 250 250 250
0.44999998807907104 0.14000000059604645 0 0 0 1 250 250 250
0.44999998807907104 0.1599999964237213 0 0 0 1 250 250 250
0.33000001311302185 0.14000000059604645 0 0 0 1 250 250 250
0.33000001311302185 0.1599999964237213 0 0 0 1 250 250 250
0.38999998569488525 0.14000000059604645 0 0 0 1 250 250 250
0.38999998569488525 0.1599999964237213 0 0 0 1 250 250 250
0.27000001072883606 0.14000000059604645 0 0 0 1 250 250 250
0.27000001072883606 0.1599999964237213 0 0 0 1 250 250 250
0.33000001311302185 0.14000000059604645 0 0 0 1 250 250 250
0.33000001311302185 0.1599999964237213 0 0 0 1 250 250 250
0.20999999344348907 0.14000000059604645 0 0 0 1 250 250 250
0.20999999344348907 0.1599999964237213 0 0 0 1 250 250 250
0.27000001072883606 0.14000000059604645 0 0 0 1 250 250 250
0.27000001072883606 0.1599999964237213 0 0 0 1 250 250 250
0.15000000596046448 0.14000000059604645 0 0 0 1 250 250 250
0.15000000596046448 0.1599999964237213 0 0 0 1 250 250 250
0.20999999344348907 0.14000000059604645 0 0 0 1 250 250 250
0.20999999344348907 0.1599999964237213 0 0 0 1 250 250 250
0.09000000357627869 0.14000000059604645 0 0 0 1 250 250 250
0.09000000357627869 0.1599999964237213 0 0 0 1 250 250 250
0.15000000596046448 0.14000000059604645 0 0 0 1 250 250 250
0.15000000596046448 0.1599999964237213 0 0 0 1 250 250 250
0.029999999329447746 0.14000000059604645 0 0 0 1 250 250 250
0.029999999329447746 0.1599999964237213 0 0 0 1 250 250 250
0.09000000357627869 0.14000000059604645 0 0 0 1 250 250 250
0.09000000357627869 0.1599999964237213 0 0 0 1 250 250 250
0.47999998927116394 0.11999999731779099 0 0 0 1 250 250 250
0.47999998927116394 0.14000000059604645 0 0 0 1 250 250 250
0.5400000214576721 0.11999999731779099 0 0 0 1 250 250 250
0.5400000214576721 0.14000000059604645 0 0 0 1 250 250 250
0.41999998688697815 0.11999999731779099 0 0 0 1 250 250 250
0.41999998688697815 0.14000000059604645 0 0 0 1 250 250 250
0.47999998927116394 0.11999999731779099 0 0 0 1 250 250 250
0.47999998927116394 0.14000000059604645 0 0 0 1 250 250 250
0.36000001430511475 0.11999999731779099 0 0 0 1 250 250 250
0.36000001430511475 0.14000000059604645 0 0 0 1 250 250 250
0.41999998688697815 0.11999999731779099 0 0 0 1 250 250 250
0.41999998688697815 0.14000000059604645 0 0 0 1 250 250 250
0.30000001192092896 0.11999999731779099 0 0 0 1 250 250 250
0.30000001192092896 0.14000000059604645 0 0 0 1 250 250 250
0.36000001430511475 0.11999999731779099 0 0 0 1 250 250 250
0.36000001430511475 0.14000000059604645 0 0 0 1 250 250 250
0.23999999463558197 0.11999999731779099 0 0 0 1 250 250 250
0.23999999463558197 0.14000000059604645 0 0 0 1 250 250 250
0.30000001192092896 0.11999999731779099 0 0 0 1 250 250 250
0.30000001192092896 0.14000000059604645 0 0 0 1 250 250 250
0.18000000715255737 0.11999999731779099 0 0 0 1 250 250 250
0.18000000715255737 0.14000000059604645 0 0 0 1 250 250 250
0.23999999463558197 0.11999999731779099 0 0 0 1 250 250 250
0.23999999463558197 0.14000000059604645 0 0 0 1 250 250 250
0.11999999731779099 0.11999999731779099 0 0 0 1 250 250 250
0.11999999731779099 0.14000000059604645 0 0 0 1 250 250 250
0.18000000715255737 0.11999999731779099 0 0 0 1 250 250 250
0.18000000715255737 0.14000000059604645 0 0 0 1 250 250 250
0.05999999865889549 0.11999999731779099 0 0 0 1 250 250 250
0.05999999865889549 0.14000000059604645 0 0 0 1 250 250 250
0.11999999731779099 0.11999999731779099 0 0 0 1 250 250 250
0.11999999731779099 0.14000000059604645 0 0 0 1 250 250 250
0 0.11999999731779099 0 0 0 1 250 250 250
0 0.14000000059604645 0 0 0 1 250 250 250
0.05999999865889549 0.11999999731779099 0 0 0 1 250 250 250
0.05999999865889549 0.14000000059604645 0 0 0 1 250 250 250
0 0.10000000149011612 0 0 0 1 250 250 250
0 0.11999999731779099 0 0 0 1 250 250 250
0.029999999329447746 0.10000000149011612 0 0 0 1 250 250 250
0.029999999329447746 0.11999999731779099 0 0 0 1 250 250 250
0.5099999904632568 0.10000000149011612 0 0 0 1 250 250 250
0.5099999904632568 0.11999999731779099 0 0 0 1 250 250 250
0.5400000214576721 0.10000000149011612 0 0 0 1 250 250 250
0.5400000214576721 0.11999999731779099 0 0 0 1 250 250 250
0.44999998807907104 0.10000000149011612 0 0 0 1 250 250 250
0.44999998807907104 0.11999999731779099 0 0 0 1 250 250 250
0.5099999904632568 0.10000000149011612 0 0 0 1 250 250 250
0.5099999904632568 0.11999999731779099 0 0 0 1 250 250 250
0.38999998569488525 0.10000000149011612 0 0 0 1 250 250 250
0.38999998569488525 0.11999999731779099 0 0 0 1 250 250 250
0.44999998807907104 0.10000000149011612 0 0 0 1 250 250 250
0.44999998807907104 0.11999999731779099 0 0 0 1 250 250 250
0.33000001311302185 0.10000000149011612 0 0 0 1 250 250 250
0.33000001311302185 0.11999999731779099 0 0 0 1 250 250 250
0.38999998569488525 0.10000000149011612 0 0 0 1 250 250 250
0.38999998569488525 0.11999999731779099 0 0 0 1 250 250 250
0.27000001072883606 0.10000000149011612 0 0 0 1 250 250 250
0.27000001072883606 0.11999999731779099 0 0 0 1 250 250 250
0.33000001311302185 0.10000000149011612 0 0 0 1 250 250 250
0.33000001311302185 0.11999999731779099 0 0 0 1 250 250 250
0.20999999344348907 0.10000000149011612 0 0 0 1 250 250 250
0.20999999344348907 0.11999999731779099 0 0 0 1 250 250 250
0.27000001072883606 0.10000000149011612 0 0 0 1 250 250 250
0.27000001072883606 0.11999999731779099 0 0 0 1 250 250 250
0.15000000596046448 0.10000000149011612 0 0 0 1 250 250 250
0.15000000596046448 0.11999999731779099 0 0 0 1 250 250 250
0.20999999344348907 0.10000000149011612 0 0 0 1 250 250 250
0.20999999344348907 0.11999999731779099 0 0 0 1 250 250 250
0.09000000357627869 0.10000000149011612 0 0 0 1 250 250 250
0.09000000357627869 0.11999999731779099 0 0 0 1 250 250 250
0.15000000596046448 0.10000000149011612 0 0 0 1 250 250 250
0.15000000596046448 0.11999999731779099 0 0 0 1 250 250 250
0.029999999329447746 0.10000000149011612 0 0 0 1 250 250 250
0.029999999329447746 0.11999999731779099 0 0 0 1 250 250 250
0.09000000357627869 0.10000000149011612 0 0 0 1 250 250 250
0.09000000357627869 0.11999999731779099 0 0 0 1 250 250 250
0.47999998927116394 0.07999999821186066 0 0 0 1 250 250 250
0.47999998927116394 0.10000000149011612 0 0 0 1 250 250 250
0.5400000214576721 0.07999999821186066 0 0 0 1 250 250 250
0.5400000214576721 0.10000000149011612 0 0 0 1 250 250 250
0.41999998688697815 0.07999999821186066 0 0 0 1 250 250 250
0.41999998688697815 0.10000000149011612 0 0 0 1 250 250 250
0.47999998927116394 0.07999999821186066 0 0 0 1 250 250 250
0.47999998927116394 0.10000000149011612 0 0 0 1 250 250 250
0.36000001430511475 0.07999999821186066 0 0 0 1 250 250 250
0.36000001430511475 0.10000000149011612 0 0 0 1 250 250 250
0.41999998688697815 0.07999999821186066 0 0 0 1 250 250 250
0.41999998688697815 0.10000000149011612 0 0 0 1 250 250 250
0.30000001192092896 0.07999999821186066 0 0 0 1 250 250 250
0.30000001192092896 0.10000000149011612 0 0 0 1 250 250 250
0.36000001430511475 0.07999999821186066 0 0 0 1 250 250 250
0.36000001430511475 0.10000000149011612 0 0 0 1 250 250 250
0.23999999463558197 0.07999999821186066 0 0 0 1 250 250 250
0.23999999463558197 0.10000000149011612 0 0 0 1 250 250 250
0.30000001192092896 0.07999999821186066 0 0 0 1 250 250 250
0.30000001192092896 0.10000000149011612 0 0 0 1 250 250 250
0.18000000715255737 0.07999999821186066 0 0 0 1 250 250 250
0.18000000715255737 0.10000000149011612 0 0 0 1 250 250 250
0.23999999463558197 0.07999999821186066 0 0 0 1 250 250 250
0.23999999463558197 0.10000000149011612 0 0 0 1 250 250 250
0.11999999731779099 0.07999999821186066 0 0 0 1 250 250 250
0.11999999731779099 0.10000000149011612 0 0 0 1 250 250 250
0.18000000715255737 0.07999999821186066 0 0 0 1 250 250 250
0.18000000715255737 0.10000000149011612 0 0 0 1 250 250 250
0.05999999865889549 0.07999999821186066 0 0 0 1 250 250 250
0.05999999865889549 0.10000000149011612 0 0 0 1 250 250 250
0.11999999731779099 0.07999999821186066 0 0 0 1 250 250 250
0.11999999731779099 0.10000000149011612 0 0 0 1 250 250 250
0 0.07999999821186066 0 0 0 1 250 250 250
0 0.10000000149011612 0 0 0 1 250 250 250
0.05999999865889549 0.07999999821186066 0 0 0 1 250 250 250
0.05999999865889549 0.10000000149011612 0 0 0 1 250 250 250
0 0.05999999865889549 0 0 0 1 250 250 250
0 0.07999999821186066 0 0 0 1 250 250 250
0.029999999329447746 0.05999999865889549 0 0 0 1 250 250 250
0.029999999329447746 0.07999999821186066 0 0 0 1 250 250 250
0.5099999904632568 0.05999999865889549 0 0 0 1 250 250 250
0.5099999904632568 0.07999999821186066 0 0 0 1 250 250 250
0.5400000214576721 0.05999999865889549 0 0 0 1 250 250 250
0.5400000214576721 0.07999999821186066 0 0 0 1 250 250 250
0.44999998807907104 0.05999999865889549 0 0 0 1 250 250 250
0.44999998807907104 0.07999999821186066 0 0 0 1 250 250 250
0.5099999904632568 0.05999999865889549 0 0 0 1 250 250 250
0.5099999904632568 0.07999999821186066 0 0 0 1 250 250 250
0.38999998569488525 0.05999999865889549 0 0 0 1 250 250 250
0.38999998569488525 0.07999999821186066 0 0 0 1 250 250 250
0.44999998807907104 0.05999999865889549 0 0 0 1 250 250 250
0.44999998807907104 0.07999999821186066 0 0 0 1 250 250 250
0.33000001311302185 0.05999999865889549 0 0 0 1 250 250 250
0.33000001311302185 0.07999999821186066 0 0 0 1 250 250 250
0.38999998569488525 0.05999999865889549 0 0 0 1 250 250 250
0.38999998569488525 0.07999999821186066 0 0 0 1 250 250 250
0.27000001072883606 0.05999999865889549 0 0 0 1 250 250 250
0.27000001072883606 0.07999999821186066 0 0 0 1 250 250 250
0.33000001311302185 0.05999999865889549 0 0 0 1 250 250 250
0.33000001311302185 0.07999999821186066 0 0 0 1 250 250 250
0.20999999344348907 0.05999999865889549 0 0 0 1 250 250 250
0.20999999344348907 0.07999999821186066 0 0 0 1 250 250 250
0.27000001072883606 0.05999999865889549 0 0 0 1 250 250 250
0.27000001072883606 0.07999999821186066 0 0 0 1 250 250 250
0.15000000596046448 0.05999999865889549 0 0 0 1 250 250 250
0.15000000596046448 0.07999999821186066 0 0 0 1 250 250 250
0.20999999344348907 0.05999999865889549 0 0 0 1 250 250 250
0.20999999344348907 0.07999999821186066 0 0 0 1 250 250 250
0.09000000357627869 0.05999999865889549 0 0 0 1 250 250 250
0.09000000357627869 0.07999999821186066 0 0 0 1 250 250 250
0.15000000596046448 0.05999999865889549 0 0 0 1 250 250 250
0.15000000596046448 0.07999999821186066 0 0 0 1 250 250 250
0.029999999329447746 0.05999999865889549 0 0 0 1 250 250 250
0.029999999329447746 0.07999999821186066 0 0 0 1 250 250 250
0.09000000357627869 0.05999999865889549 0 0 0 1 250 250 250
0.09000000357627869 0.07999999821186066 0 0 0 1 250 250 250
0.47999998927116394 0.03999999910593033 0 0 0 1 250 250 250
0.47999998927116394 0.05999999865889549 0 0 0 1 250 250 250
0.5400000214576721 0.03999999910593033 0 0 0 1 250 250 250
0.5400000214576721 0.05999999865889549 0 0 0 1 250 250 250
0.41999998688697815 0.03999999910593033 0 0 0 1 250 250 250
0.41999998688697815 0.05999999865889549 0 0 0 1 250 250 250
0.47999998927116394 0.03999999910593033 0 0 0 1 250 250 250
0.47999998927116394 0.05999999865889549 0 0 0 1 250 250 250
0.36000001430511475 0.03999999910593033 0 0 0 1 250 250 250
0.36000001430511475 0.05999999865889549 0 0 0 1 250 250 250
0.41999998688697815 0.03999999910593033 0 0 0 1 250 250 250
0.41999998688697815 0.05999999865889549 0 0 0 1 250 250 250
0.30000001192092896 0.03999999910593033 0 0 0 1 250 250 250
0.30000001192092896 0.05999999865889549 0 0 0 1 250 250 250
0.36000001430511475 0.03999999910593033 0 0 0 1 250 250 250
0.36000001430511475 0.05999999865889549 0 0 0 1 250 250 250
0.23999999463558197 0.03999999910593033 0 0 0 1 250 250 250
0.23999999463558197 0.05999999865889549 0 0 0 1 250 250 250
0.30000001192092896 0.03999999910593033 0 0 0 1 250 250 250
0.30000001192092896 0.05999999865889549 0 0 0 1 250 250 250
0.18000000715255737 0.03999999910593033 0 0 0 1 250 250 250
0.18000000715255737 0.05999999865889549 0 0 0 1 250 250 250
0.23999999463558197 0.03999999910593033 0 0 0 1 250 250 250
0.23999999463558197 0.05999999865889549 0 0 0 1 250 250 250
0.11999999731779099 0.03999999910593033 0 0 0 1 250 250 250
0.11999999731779099 0.05999999865889549 0 0 0 1 250 250 250
0.18000000715255737 0.03999999910593033 0 0 0 1 250 250 250
0.18000000715255737 0.05999999865889549 0 0 0 1 250 250 250
0.05999999865889549 0.03999999910593033 0 0 0 1 250 250 250
0.05999999865889549 0.05999999865889549 0 0 0 1 250 250 250
0.11999999731779099 0.03999999910593033 0 0 0 1 250 250 250
0.11999999731779099 0.05999999865889549 0 0 0 1 250 250 250
0 0.03999999910593033 0 0 0 1 250 250 250
0 0.05999999865889549 0 0 0 1 250 250 250
0.05999999865889549 0.03999999910593033 0 0 0 1 250 250 250
0.05999999865889549 0.05999999865889549 0 0 0 1 250 250 250
0 0.019999999552965164 0 0 0 1 250 250 250
0 0.03999999910593033 0 0 0 1 250 250 250
0.029999999329447746 0.019999999552965164 0 0 0 1 250 250 250
0.029999999329447746 0.03999999910593033 0 0 0 1 250 250 250
0.5099999904632568 0.019999999552965164 0 0 0 1 250 250 250
0.5099999904632568 0.03999999910593033 0 0 0 1 250 250 250
0.5400000214576721 0.019999999552965164 0 0 0 1 250 250 250
0.5400000214576721 0.03999999910593033 0 0 0 1 250 250 250
0.44999998807907104 0.019999999552965164 0 0 0 1 250 250 250
0.44999998807907104 0.03999999910593033 0 0 0 1 250 250 250
0.5099999904632568 0.019999999552965164 0 0 0 1 250 250 250
0.5099999904632568 0.03999999910593033 0 0 0 1 250 250 250
0.38999998569488525 0.019999999552965164 0 0 0 1 250 250 250
0.38999998569488525 0.03999999910593033 0 0 0 1 250 250 250
0.44999998807907104 0.019999999552965164 0 0 0 1 250 250 250
0.44999998807907104 0.03999999910593033 0 0 0 1 250 250 250
0.33000001311302185 0.019999999552965164 0 0 0 1 250 250 250
0.33000001311302185 0.03999999910593033 0 0 0 1 250 250 250
0.38999998569488525 0.019999999552965164 0 0 0 1 250 250 250
0.38999998569488525 0.03999999910593033 0 0 0 1 250 250 250
0.27000001072883606 0.019999999552965164 0 0 0 1 250 250 250
0.27000001072883606 0.03999999910593033 0 0 0 1 250 250 250
0.33000001311302185 0.019999999552965164 0 0 0 1 250 250 250
0.33000001311302185 0.03999999910593033 0 0 0 1 250 250 250
0.20999999344348907 0.019999999552965164 0 0 0 1 250 250 250
0.20999999344348907 0.03999999910593033 0 0 0 1 250 250 250
0.27000001072883606 0.019999999552965164 0 0 0 1 250 250 250
0.27000001072883606 0.03999999910593033 0 0 0 1 250 250 250
0.15000000596046448 0.019999999552965164 0 0 0 1 250 250 250
0.15000000596046448 0.03999999910593033 0 0 0 1 250 250 250
0.20999999344348907 0.019999999552965164 0 0 0 1 250 250 250
0.20999999344348907 0.03999999910593033 0 0 0 1 250 250 250
0.09000000357627869 0.019999999552965164 0 0 0 1 250 250 250
0.09000000357627869 0.03999999910593033 0 0 0 1 250 250 250
0.15000000596046448 0.019999999552965164 0 0 0 1 250 250 250
0.15000000596046448 0.03999999910593033 0 0 0 1 250 250 250
0.029999999329447746 0.019999999552965164 0 0 0 1 250 250 250
0.029999999329447746 0.03999999910593033 0 0 0 1 250 250 250
0.09000000357627869 0.019999999552965164 0 0 0 1 250 250 250
0.09000000357627869 0.03999999910593033 0 0 0 1 250 250 250
0.47999998927116394 0 0 0 0 1 250 250 250
0.47999998927116394 0.019999999552965164 0 0 0 1 250 250 250
0.5400000214576721 0 0 0 0 1 250 250 250
0.5400000214576721 0.019999999552965164 0 0 0 1 250 250 250
0.41999998688697815 0 0 0 0 1 250 250 250
0.41999998688697815 0.019999999552965164 0 0 0 1 250 250 250
0.47999998927116394 0 0 0 0 1 250 250 250
0.47999998927116394 0.019999999552965164 0 0 0 1 250 250 250
0.36000001430511475 0 0 0 0 1 250 250 250
0.36000001430511475 0.019999999552965164 0 0 0 1 250 250 250
0.41999998688697815 0 0 0 0 1 250 250 250
0.41999998688697815 0.019999999552965164 0 0 0 1 250 250 250
0.30000001192092896 0 0 0 0 1 250 250 250
0.30000001192092896 0.019999999552965164 0 0 0 1 250 250 250
0.36000001430511475 0 0 0 0 1 250 250 250
0.36000001430511475 0.019999999552965164 0 0 0 1 250 250 250
0.23999999463558197 0 0 0 0 1 250 250 250
0.23999999463558197 0.019999999552965164 0 0 0 1 250 250 250
0.30000001192092896 0 0 0 0 1 250 250 250
0.30000001192092896 0.019999999552965164 0 0 0 1 250 250 250
0.18000000715255737 0 0 0 0 1 250 250 250
0.18000000715255737 0.019999999552965164 0 0 0 1 250 250 250
0.23999999463558197 0 0 0 0 1 250 250 250
0.23999999463558197 0.019999999552965164 0 0 0 1 250 250 250
0.11999999731779099 0 0 0 0 1 250 250 250
0.11999999731779099 0.019999999552965164 0 0 0 1 250 250 250
0.18000000715255737 0 0 0 0 1 250 250 250
0.18000000715255737 0.019999999552965164 0 0 0 1 250 250 250
0.05999999865889549 0 0 0 0 1 250 250 250
0.05999999865889549 0.019999999552965164 0 0 0 1 250 250 250
0.11999999731779099 0 0 0 0 1 250 250 250
0.11999999731779099 0.019999999552965164 0 0 0 1 250 250 250
0 0 0 0 0 1 250 250 250
0 0.019999999552965164 0 0 0 1 250 250 250
0.05999999865889549 0 0 0 0 1 250 250 250
0.05999999865889549 0.019999999552965164 0 0 0 1 250 250 250
4 3 1 0 2
4 7 5 4 6
4 11 9 8 10
4 15 13 12 14
4 19 17 16 18
4 23 21 20 22
4 27 25 24 26
4 31 29 28 30
4 35 33 32 34
4 39 37 36 38
4 43 41 40 42
4 47 45 44 46
4 51 49 48 50
4 55 53 52 54
4 59 57 56 58
4 63 61 60 62
4 67 65 64 66
4 71 69 68 70
4 75 73 72 74
4 79 77 76 78
4 83 81 80 82
4 87 85 84 86
4 91 89 88 90
4 95 93 92 94
4 99 97 96 98
4 103 101 100 102
4 107 105 104 106
4 111 109 108 110
4 115 113 112 114
4 119 117 116 118
4 123 121 120 122
4 127 125 124 126
4 131 129 128 130
4 135 133 132 134
4 139 137 136 138
4 143 141 140 142
4 147 145 144 146
4 151 149 148 150
4 155 153 152 154
4 159 157 156 158
4 163 161 160 162
4 167 165 164 166
4 171 169 168 170
4 175 173 172 174
4 179 177 176 178
4 183 181 180 182
4 187 185 184 186
4 191 189 188 190
4 195 193 192 194
4 199 197 196 198
4 203 201 200 202
4 207 205 204 206
4 211 209 208 210
4 215 213 212 214
4 219 217 216 218
4 223 221 220 222
4 227 225 224 226
4 231 229 228 230
4 235 233 232 234
4 239 237 236 238
4 243 241 240 242
4 247 245 244 246
4 251 249 248 250
4 255 253 252 254
4 259 257 256 258
4 263 261 260 262
4 267 265 264 266
4 271 269 268 270
4 275 273 272 274
4 279 277 276 278
4 283 281 280 282
4 287 285 284 286
4 291 289 288 290
4 295 293 292 294
4 299 297 296 298
4 303 301 300 302
4 307 305 304 306
4 311 309 308 310
4 315 313 312 314
4 319 317 316 318
4 323 321 320 322
4 327 325 324 326
4 331 329 328 330
4 335 333 332 334
4 339 337 336 338
4 343 341 340 342
4 347 345 344 346
4 351 349 348 350
4 355 353 352 354
4 359 357 356 358
4 363 361 360 362
4 367 365 364 366
4 371 369 368 370
4 375 373 372 374
4 379 377 376 378
4 383 381 380 382
4 387 385 384 386
4 391 389 388 390
4 395 393 392 394
4 399 397 396 398
4 403 401 400 402
4 407 405 404 406
4 411 409 408 410
4 415 413 412 414
4 419 417 416 418
4 423 421 420 422
4 427 425 424 426
4 431 429 428 430
4 435 433 432 434
4 439 437 436 438
4 443 441 440 442
4 447 445 444 446
4 451 449 448 450
4 455 453 452 454
4 459 457 456 458
4 463 461 460 462
4 467 465 464 466
4 471 469 468 470
4 475 473 472 474
4 479 477 476 478
4 483 481 480 482
4 487 485 484 486
4 491 489 488 490
4 495 493 492 494
4 499 497 496 498
4 503 501 500 502
4 507 505 504 506
4 511 509 508 510
4 515 513 512 514
4 519 517 516 518
4 523 521 520 522
4 527 525 524 526
4 531 529 528 530
0 0 0 255 250 250 250 255 0 0 0 255 255 255 255 255 0 0
