ply
format ascii 1.0
comment File exported by Rhinoceros Version 8
element vertex 4
property float x
property float y
property float z
property float nx
property float ny
property float nz
property uchar red
property uchar green
property uchar blue
element face 1
property list uchar uint vertex_indices
element material 1
property uchar ambient_red
property uchar ambient_green
property uchar ambient_blue
property uchar ambient_alpha
property uchar diffuse_red
property uchar diffuse_green
property uchar diffuse_blue
property uchar diffuse_alpha
property uchar emissive_red
property uchar emissive_green
property uchar emissive_blue
property uchar emissive_alpha
property uchar specular_red
property uchar specular_green
property uchar specular_blue
property uchar specular_alpha
property double shine
property double transparency
end_header
0 0 0 0 0 1 250 250 250
0 0.2800000011920929 0 0 0 1 250 250 250
0.5400000214576721 0 0 0 0 1 250 250 250
0.5400000214576721 0.2800000011920929 0 0 0 1 250 250 250
4 3 1 0 2
0 0 0 255 250 250 250 255 0 0 0 255 255 255 255 255 0 0
