ply
format ascii 1.0
comment File exported by Rhinoceros Version 8
element vertex 24
property float x
property float y
property float z
property float nx
property float ny
property float nz
property uchar red
property uchar green
property uchar blue
element face 8
property list uchar uint vertex_indices
element material 1
property uchar ambient_red
property uchar ambient_green
property uchar ambient_blue
property uchar ambient_alpha
property uchar diffuse_red
property uchar diffuse_green
property uchar diffuse_blue
property uchar diffuse_alpha
property uchar emissive_red
property uchar emissive_green
property uchar emissive_blue
property uchar emissive_alpha
property uchar specular_red
property uchar specular_green
property uchar specular_blue
property uchar specular_alpha
property double shine
property double transparency
end_header
0 0 0 -1 0 0 250 250 250
0 0 -0.020261911675333977 -1 0 0 250 250 250
0 0.18000000715255737 0 -1 0 0 250 250 250
0 0.18000000715255737 -0.020261911675333977 -1 0 0 250 250 250
0 0.18000000715255737 0 0 1 0 250 250 250
0 0.18000000715255737 -0.020261911675333977 0 1 0 250 250 250
0.30000001192092896 0.18000000715255737 0 0 1 0 250 250 250
0.30000001192092896 0.18000000715255737 -0.020261911675333977 0 1 0 250 250 250
0.30000001192092896 0.18000000715255737 0 1 0 0 250 250 250
0.30000001192092896 0.18000000715255737 -0.020261911675333977 1 0 0 250 250 250
0.30000001192092896 0 0 1 0 0 250 250 250
0.30000001192092896 0 -0.020261911675333977 1 0 0 250 250 250
0.30000001192092896 0 0 -0 -1 -0 250 250 250
0.30000001192092896 0 -0.020261911675333977 -0 -1 -0 250 250 250
0 0 0 -0 -1 -0 250 250 250
0 0 -0.020261911675333977 -0 -1 -0 250 250 250
0 0 0 0 0 1 250 250 250
0 0.18000000715255737 0 0 0 1 250 250 250
0.30000001192092896 0.18000000715255737 0 0 0 1 250 250 250
0.30000001192092896 0 0 0 0 1 250 250 250
0 0 -0.020261911675333977 0 0 -1 250 250 250
0 0.18000000715255737 -0.020261911675333977 0 0 -1 250 250 250
0.30000001192092896 0.18000000715255737 -0.020261911675333977 0 0 -1 250 250 250
0.30000001192092896 0 -0.020261911675333977 0 0 -1 250 250 250
4 0 2 3 1
4 4 6 7 5
4 8 10 11 9
4 12 14 15 13
3 16 19 18
3 18 17 16
3 20 22 23
3 22 20 21
0 0 0 255 250 250 250 255 0 0 0 255 255 255 255 255 0 0
