ply
format ascii 1.0
comment File exported by Rhinoceros Version 8
element vertex 112
property float x
property float y
property float z
property float nx
property float ny
property float nz
property uchar red
property uchar green
property uchar blue
element face 28
property list uchar uint vertex_indices
element material 1
property uchar ambient_red
property uchar ambient_green
property uchar ambient_blue
property uchar ambient_alpha
property uchar diffuse_red
property uchar diffuse_green
property uchar diffuse_blue
property uchar diffuse_alpha
property uchar emissive_red
property uchar emissive_green
property uchar emissive_blue
property uchar emissive_alpha
property uchar specular_red
property uchar specular_green
property uchar specular_blue
property uchar specular_alpha
property double shine
property double transparency
end_header
0.41999995708465576 1.1920929132713809E-08 0 1 0 0 250 250 250
0.41999995708465576 1.1920929132713809E-08 0.019999999552965164 1 0 0 250 250 250
0.41999995708465576 0.03000001236796379 0 1 0 0 250 250 250
0.41999995708465576 0.03000001236796379 0.019999999552965164 1 0 0 250 250 250
0.41999995708465576 0.03000001236796379 0 1 0 0 250 250 250
0.41999995708465576 0.03000001236796379 0.019999999552965164 1 0 0 250 250 250
0.41999995708465576 0.09000001847743988 -3.469446951953614E-18 1 0 0 250 250 250
0.41999995708465576 0.09000001847743988 0.019999999552965164 1 0 0 250 250 250
0.41999995708465576 0.09000001847743988 -3.469446951953614E-18 1 0 0 250 250 250
0.41999995708465576 0.09000001847743988 0.019999999552965164 1 0 0 250 250 250
0.41999995708465576 0.15000002086162567 -6.938893903907228E-18 1 0 0 250 250 250
0.41999995708465576 0.15000002086162567 0.019999999552965164 1 0 0 250 250 250
0.41999995708465576 1.1920929132713809E-08 0.019999999552965164 1 0 0 250 250 250
0.41999995708465576 1.1920929132713809E-08 0.03999999910593033 1 0 0 250 250 250
0.41999995708465576 0.0599999837577343 0.019999999552965164 1 0 0 250 250 250
0.41999995708465576 0.0599999837577343 0.03999999910593033 1 0 0 250 250 250
0.41999995708465576 0.11999998986721039 0.019999999552965164 1 0 0 250 250 250
0.41999995708465576 0.11999998986721039 0.03999999910593033 1 0 0 250 250 250
0.41999995708465576 0.18000002205371857 0.019999999552965164 1 0 0 250 250 250
0.41999995708465576 0.18000002205371857 0.03999999910593033 1 0 0 250 250 250
0.41999995708465576 0.0599999837577343 0.019999999552965164 1 0 0 250 250 250
0.41999995708465576 0.0599999837577343 0.03999999910593033 1 0 0 250 250 250
0.41999995708465576 0.11999998986721039 0.019999999552965164 1 0 0 250 250 250
0.41999995708465576 0.11999998986721039 0.03999999910593033 1 0 0 250 250 250
0.41999995708465576 0.15000002086162567 1.734723475976807E-18 1 0 0 250 250 250
0.41999995708465576 0.15000002086162567 0.019999999552965164 1 0 0 250 250 250
0.41999995708465576 0.18000002205371857 1.734723475976807E-18 1 0 0 250 250 250
0.41999995708465576 0.18000002205371857 0.019999999552965164 1 0 0 250 250 250
0.41999995708465576 1.1920929132713809E-08 0.03999999910593033 1 0 0 250 250 250
0.41999995708465576 1.1920929132713809E-08 0.05999999865889549 1 0 0 250 250 250
0.41999995708465576 0.03000001236796379 0.03999999910593033 1 0 0 250 250 250
0.41999995708465576 0.03000001236796379 0.05999999865889549 1 0 0 250 250 250
0.41999995708465576 0.03000001236796379 0.03999999910593033 1 0 0 250 250 250
0.41999995708465576 0.03000001236796379 0.05999999865889549 1 0 0 250 250 250
0.41999995708465576 0.09000001847743988 0.03999999910593033 1 0 0 250 250 250
0.41999995708465576 0.09000001847743988 0.05999999865889549 1 0 0 250 250 250
0.41999995708465576 0.09000001847743988 0.03999999910593033 1 0 0 250 250 250
0.41999995708465576 0.09000001847743988 0.05999999865889549 1 0 0 250 250 250
0.41999995708465576 0.15000002086162567 0.03999999910593033 1 0 0 250 250 250
0.41999995708465576 0.15000002086162567 0.05999999865889549 1 0 0 250 250 250
0.41999995708465576 1.1920929132713809E-08 0.05999999865889549 1 0 0 250 250 250
0.41999995708465576 1.1920929132713809E-08 0.07999999821186066 1 0 0 250 250 250
0.41999995708465576 0.0599999837577343 0.05999999865889549 1 0 0 250 250 250
0.41999995708465576 0.0599999837577343 0.07999999821186066 1 0 0 250 250 250
0.41999995708465576 0.11999998986721039 0.05999999865889549 1 0 0 250 250 250
0.41999995708465576 0.11999998986721039 0.07999999821186066 1 0 0 250 250 250
0.41999995708465576 0.18000002205371857 0.05999999865889549 1 0 0 250 250 250
0.41999995708465576 0.18000002205371857 0.07999999821186066 1 0 0 250 250 250
0.41999995708465576 0.0599999837577343 0.05999999865889549 1 0 0 250 250 250
0.41999995708465576 0.0599999837577343 0.07999999821186066 1 0 0 250 250 250
0.41999995708465576 0.11999998986721039 0.05999999865889549 1 0 0 250 250 250
0.41999995708465576 0.11999998986721039 0.07999999821186066 1 0 0 250 250 250
0.41999995708465576 0.15000002086162567 0.03999999910593033 1 0 0 250 250 250
0.41999995708465576 0.15000002086162567 0.05999999865889549 1 0 0 250 250 250
0.41999995708465576 0.18000002205371857 0.03999999910593033 1 0 0 250 250 250
0.41999995708465576 0.18000002205371857 0.05999999865889549 1 0 0 250 250 250
0.41999995708465576 1.1920929132713809E-08 0.07999999821186066 1 0 0 250 250 250
0.41999995708465576 1.1920929132713809E-08 0.10000000149011612 1 0 0 250 250 250
0.41999995708465576 0.03000001236796379 0.07999999821186066 1 0 0 250 250 250
0.41999995708465576 0.03000001236796379 0.10000000149011612 1 0 0 250 250 250
0.41999995708465576 0.03000001236796379 0.07999999821186066 1 0 0 250 250 250
0.41999995708465576 0.03000001236796379 0.10000000149011612 1 0 0 250 250 250
0.41999995708465576 0.09000001847743988 0.07999999821186066 1 0 0 250 250 250
0.41999995708465576 0.09000001847743988 0.10000000149011612 1 0 0 250 250 250
0.41999995708465576 0.09000001847743988 0.07999999821186066 1 0 0 250 250 250
0.41999995708465576 0.09000001847743988 0.10000000149011612 1 0 0 250 250 250
0.41999995708465576 0.15000002086162567 0.07999999821186066 1 0 0 250 250 250
0.41999995708465576 0.15000002086162567 0.10000000149011612 1 0 0 250 250 250
0.41999995708465576 1.1920929132713809E-08 0.10000000149011612 1 0 0 250 250 250
0.41999995708465576 1.1920929132713809E-08 0.11999999731779099 1 0 0 250 250 250
0.41999995708465576 0.0599999837577343 0.10000000149011612 1 0 0 250 250 250
0.41999995708465576 0.0599999837577343 0.11999999731779099 1 0 0 250 250 250
0.41999995708465576 0.11999998986721039 0.10000000149011612 1 0 0 250 250 250
0.41999995708465576 0.11999998986721039 0.11999999731779099 1 0 0 250 250 250
0.41999995708465576 0.18000002205371857 0.10000000149011612 1 0 0 250 250 250
0.41999995708465576 0.18000002205371857 0.11999999731779099 1 0 0 250 250 250
0.41999995708465576 0.0599999837577343 0.10000000149011612 1 0 0 250 250 250
0.41999995708465576 0.0599999837577343 0.11999999731779099 1 0 0 250 250 250
0.41999995708465576 0.11999998986721039 0.10000000149011612 1 0 0 250 250 250
0.41999995708465576 0.11999998986721039 0.11999999731779099 1 0 0 250 250 250
0.41999995708465576 0.15000002086162567 0.07999999821186066 1 0 0 250 250 250
0.41999995708465576 0.15000002086162567 0.10000000149011612 1 0 0 250 250 250
0.41999995708465576 0.18000002205371857 0.07999999821186066 1 0 0 250 250 250
0.41999995708465576 0.18000002205371857 0.10000000149011612 1 0 0 250 250 250
0.41999995708465576 1.1920929132713809E-08 0.11999999731779099 1 0 0 250 250 250
0.41999995708465576 1.1920929132713809E-08 0.14000000059604645 1 0 0 250 250 250
0.41999995708465576 0.03000001236796379 0.11999999731779099 1 0 0 250 250 250
0.41999995708465576 0.03000001236796379 0.14000000059604645 1 0 0 250 250 250
0.41999995708465576 0.03000001236796379 0.11999999731779099 1 0 0 250 250 250
0.41999995708465576 0.03000001236796379 0.14000000059604645 1 0 0 250 250 250
0.41999995708465576 0.09000001847743988 0.11999999731779099 1 0 0 250 250 250
0.41999995708465576 0.09000001847743988 0.14000000059604645 1 0 0 250 250 250
0.41999995708465576 0.09000001847743988 0.11999999731779099 1 0 0 250 250 250
0.41999995708465576 0.09000001847743988 0.14000000059604645 1 0 0 250 250 250
0.41999995708465576 0.15000002086162567 0.11999999731779099 1 0 0 250 250 250
0.41999995708465576 0.15000002086162567 0.14000000059604645 1 0 0 250 250 250
0.41999995708465576 1.1920929132713809E-08 0.14000000059604645 1 0 0 250 250 250
0.41999995708465576 1.1920929132713809E-08 0.1599999964237213 1 0 0 250 250 250
0.41999995708465576 0.0599999837577343 0.14000000059604645 1 0 0 250 250 250
0.41999995708465576 0.0599999837577343 0.1599999964237213 1 0 0 250 250 250
0.41999995708465576 0.11999998986721039 0.14000000059604645 1 0 0 250 250 250
0.41999995708465576 0.11999998986721039 0.1599999964237213 1 0 0 250 250 250
0.41999995708465576 0.18000002205371857 0.14000000059604645 1 0 0 250 250 250
0.41999995708465576 0.18000002205371857 0.1599999964237213 1 0 0 250 250 250
0.41999995708465576 0.0599999837577343 0.14000000059604645 1 0 0 250 250 250
0.41999995708465576 0.0599999837577343 0.1599999964237213 1 0 0 250 250 250
0.41999995708465576 0.11999998986721039 0.14000000059604645 1 0 0 250 250 250
0.41999995708465576 0.11999998986721039 0.1599999964237213 1 0 0 250 250 250
0.41999995708465576 0.15000002086162567 0.11999999731779099 1 0 0 250 250 250
0.41999995708465576 0.15000002086162567 0.14000000059604645 1 0 0 250 250 250
0.41999995708465576 0.18000002205371857 0.11999999731779099 1 0 0 250 250 250
0.41999995708465576 0.18000002205371857 0.14000000059604645 1 0 0 250 250 250
4 3 1 0 2
4 7 5 4 6
4 11 9 8 10
4 15 13 12 14
4 19 17 16 18
4 23 21 20 22
4 27 25 24 26
4 31 29 28 30
4 35 33 32 34
4 39 37 36 38
4 43 41 40 42
4 47 45 44 46
4 51 49 48 50
4 55 53 52 54
4 59 57 56 58
4 63 61 60 62
4 67 65 64 66
4 71 69 68 70
4 75 73 72 74
4 79 77 76 78
4 83 81 80 82
4 87 85 84 86
4 91 89 88 90
4 95 93 92 94
4 99 97 96 98
4 103 101 100 102
4 107 105 104 106
4 111 109 108 110
0 0 0 255 250 250 250 255 0 0 0 255 255 255 255 255 0 0
